<svg xmlns="http://www.w3.org/2000/svg" xmlns:svg="http://www.w3.org/2000/svg" xmlns:xlink="http://www.w3.org/1999/xlink" id="svg2" width="48" height="48" version="1.0"><defs id="defs4"><linearGradient id="linearGradient7754"><stop id="stop7756" offset="0" stop-color="#000" stop-opacity="1"/><stop id="stop7758" offset="1" stop-color="#000" stop-opacity="0"/></linearGradient><linearGradient id="linearGradient7723"><stop id="stop7725" offset="0" stop-color="#ef2929" stop-opacity="1"/><stop id="stop7727" offset="1" stop-color="#f46161" stop-opacity="1"/></linearGradient><linearGradient id="linearGradient7717"><stop id="stop7719" offset="0" stop-color="#ef2929" stop-opacity="1"/><stop id="stop7721" offset="1" stop-color="#f46161" stop-opacity="1"/></linearGradient><linearGradient id="linearGradient7705"><stop id="stop7707" offset="0" stop-color="#fff" stop-opacity="1"/><stop id="stop7709" offset="1" stop-color="#fff" stop-opacity="0"/></linearGradient><linearGradient id="linearGradient7697"><stop id="stop7699" offset="0" stop-color="#fff" stop-opacity="1"/><stop id="stop7701" offset="1" stop-color="#fff" stop-opacity="0"/></linearGradient><linearGradient id="linearGradient7691"><stop id="stop7693" offset="0" stop-color="#fff" stop-opacity="1"/><stop id="stop7695" offset="1" stop-color="#fff" stop-opacity="0"/></linearGradient><linearGradient id="linearGradient3220"><stop id="stop3222" offset="0" stop-color="#2e3436" stop-opacity="1"/><stop id="stop3228" offset=".644" stop-color="#888a85" stop-opacity="1"/><stop id="stop3224" offset="1" stop-color="#555753" stop-opacity="1"/></linearGradient><linearGradient id="linearGradient3241"><stop id="stop3243" offset="0" stop-color="#1b1f20" stop-opacity="1"/><stop id="stop3245" offset="1" stop-color="#babdb6" stop-opacity="1"/></linearGradient><linearGradient id="linearGradient3251"><stop id="stop3253" offset="0" stop-color="#fff" stop-opacity="1"/><stop id="stop3255" offset="1" stop-color="#fff" stop-opacity="0"/></linearGradient><linearGradient id="linearGradient3339"><stop id="stop3341" offset="0" stop-color="#fff" stop-opacity="1"/><stop id="stop3343" offset="1" stop-color="#fff" stop-opacity="0"/></linearGradient><linearGradient id="linearGradient3338"><stop id="stop3340" offset="0" stop-color="#eeeeec" stop-opacity="1"/><stop id="stop3346" offset=".789" stop-color="#fff" stop-opacity="1"/><stop id="stop3342" offset="1" stop-color="#eeeeec" stop-opacity="1"/></linearGradient><linearGradient id="linearGradient7041" x1="31" x2="3.259" y1="12.875" y2="24.894" gradientTransform="translate(79.80785,3.7721976)" gradientUnits="userSpaceOnUse" xlink:href="#linearGradient3339"/><radialGradient id="radialGradient7043" cx="32.5" cy="16.563" r="14.438" fx="32.5" fy="16.563" gradientUnits="userSpaceOnUse" xlink:href="#linearGradient3251"/><linearGradient id="linearGradient7045" x1="39" x2="36.375" y1="26.125" y2="20.438" gradientTransform="translate(79.80785,-3.2278024)" gradientUnits="userSpaceOnUse" xlink:href="#linearGradient3241"/><linearGradient id="linearGradient7047" x1="42.906" x2="44.813" y1="42.219" y2="41.406" gradientTransform="translate(79.80785,-3.2278024)" gradientUnits="userSpaceOnUse" xlink:href="#linearGradient3220"/><linearGradient id="linearGradient7049" x1="31.994" x2="37.724" y1="16.859" y2="16.859" gradientUnits="userSpaceOnUse" xlink:href="#linearGradient3338"/><linearGradient id="linearGradient7689" x1="26" x2="34.625" y1="11.875" y2="46.125" gradientUnits="userSpaceOnUse" xlink:href="#linearGradient7691"/><linearGradient id="linearGradient7703" x1="36.7" x2="21.82" y1="39.07" y2="-3.865" gradientUnits="userSpaceOnUse" xlink:href="#linearGradient7697"/><linearGradient id="linearGradient7711" x1="4.508" x2="4.066" y1="37.388" y2="43.31" gradientTransform="matrix(0.7071068,-0.7071068,0.7071068,0.7071068,-80,2)" gradientUnits="userSpaceOnUse" xlink:href="#linearGradient7705"/><linearGradient id="linearGradient7713" x1="11.79" x2="-7.071" y1="24.198" y2="50.912" gradientTransform="matrix(0.7071068,-0.7071068,0.7071068,0.7071068,-80,2)" gradientUnits="userSpaceOnUse" xlink:href="#linearGradient7723"/><linearGradient id="linearGradient7715" x1="25.447" x2="31" y1="8.773" y2="41" gradientTransform="translate(-80,2)" gradientUnits="userSpaceOnUse" xlink:href="#linearGradient7717"/><radialGradient id="radialGradient7760" cx="110" cy="42" r="14" fx="110" fy="42" gradientTransform="matrix(1,0,0,0.1428571,0,36)" gradientUnits="userSpaceOnUse" xlink:href="#linearGradient7754"/></defs><metadata id="metadata7"/><g id="layer1"><g id="g6799" transform="translate(80,0)"><path id="path7748" fill="url(#radialGradient7760)" fill-opacity="1" fill-rule="evenodd" stroke="none" stroke-dasharray="none" stroke-dashoffset=".677" stroke-linecap="round" stroke-linejoin="miter" stroke-miterlimit="4" stroke-opacity="1" stroke-width="1" marker-end="none" marker-mid="none" marker-start="none" d="M 124,42 A 14,2 0 1 1 96,42 A 14,2 0 1 1 124,42 z" display="inline" enable-background="accumulate" opacity=".25" overflow="visible" transform="matrix(1.2142855,0,0,1.5,-182.5714,-22)" visibility="visible" style="marker:none"/><path stroke-width="1" style="marker:none" id="path7666" fill="url(#linearGradient7715)" fill-opacity="1" fill-rule="evenodd" stroke="#c00" stroke-dasharray="none" stroke-dashoffset=".677" stroke-linecap="round" stroke-linejoin="miter" stroke-miterlimit="4" stroke-opacity="1" marker-end="none" marker-mid="none" marker-start="none" d="M -49,9.5 C -58.108,9.5 -65.5,16.892 -65.5,26 C -65.5,35.108 -58.108,42.5 -49,42.5 C -39.892,42.5 -32.5,35.108 -32.5,26 C -32.5,16.892 -39.892,9.5 -49,9.5 z M -49,14.5 C -42.651999,14.5 -37.5,19.652 -37.5,26 C -37.500001,32.348001 -42.652,37.5 -49,37.5 C -55.347999,37.499999 -60.5,32.348 -60.5,26 C -60.5,19.652001 -55.348,14.5 -49,14.5 z" display="inline" enable-background="accumulate" opacity="1" overflow="visible" visibility="visible"/><path id="path7672" fill="none" fill-opacity="1" fill-rule="evenodd" stroke="url(#linearGradient7689)" stroke-dasharray="none" stroke-dashoffset=".677" stroke-linecap="round" stroke-linejoin="miter" stroke-miterlimit="4" stroke-opacity="1" stroke-width="1" marker-end="none" marker-mid="none" marker-start="none" d="M 46,24.5 A 15.5,15.5 0 1 1 15,24.5 A 15.5,15.5 0 1 1 46,24.5 z" display="inline" enable-background="accumulate" opacity=".471" overflow="visible" transform="translate(-79.5,1.5)" visibility="visible" style="marker:none"/><path id="path7674" fill="none" fill-opacity="1" fill-rule="evenodd" stroke="url(#linearGradient7703)" stroke-dasharray="none" stroke-dashoffset=".677" stroke-linecap="round" stroke-linejoin="miter" stroke-miterlimit="4" stroke-opacity="1" stroke-width="1.24" marker-end="none" marker-mid="none" marker-start="none" d="M 46,24.5 A 15.5,15.5 0 1 1 15,24.5 A 15.5,15.5 0 1 1 46,24.5 z" display="inline" enable-background="accumulate" opacity=".471" overflow="visible" transform="matrix(0.8064516,0,0,0.8064516,-73.59677,6.2419355)" visibility="visible" style="marker:none"/><g id="g7017" transform="translate(-164,-3)"><path id="path7019" fill="url(#linearGradient7041)" fill-opacity="1" fill-rule="evenodd" stroke="none" stroke-linecap="butt" stroke-linejoin="miter" stroke-opacity="1" stroke-width="1" d="M 80.18285,26.022198 C 107.42445,27.74975 90.25665,12.023264 111.30785,11.522198 L 116.59707,22.637237 C 106.9906,18.157926 100.41953,41.170233 80.05785,27.647198 L 80.18285,26.022198 z" display="inline" opacity=".444"/><path id="path7021" fill="#d3d7cf" fill-opacity="1" stroke="none" stroke-dasharray="none" stroke-dashoffset="0" stroke-linecap="round" stroke-linejoin="round" stroke-miterlimit="4" stroke-opacity="1" stroke-width="4" d="M 8.78125,15.65625 C 8.3233049,15.715333 7.9776728,16.100845 7.96875,16.5625 L 7.84375,19.71875 L 4.9375,21.21875 C 4.619715,21.395073 4.4334212,21.740049 4.4602679,22.10248 C 4.4871147,22.464911 4.7222039,22.778674 5.0625,22.90625 L 8,24 L 8.53125,27.21875 C 8.5960772,27.572338 8.8584951,27.857112 9.2056163,27.950568 C 9.5527375,28.044024 9.92266,27.929495 10.15625,27.65625 L 12.125,25.1875 L 15.375,25.65625 C 15.727994,25.697362 16.073643,25.534132 16.266153,25.23541 C 16.458663,24.936687 16.464519,24.55448 16.28125,24.25 L 14.53125,21.625 L 16,18.6875 C 16.166178,18.35617 16.120198,17.957857 15.882903,17.673102 C 15.645607,17.388347 15.262115,17.271295 14.90625,17.375 L 11.875,18.21875 L 9.5625,15.9375 C 9.3605445,15.726505 9.0713512,15.622396 8.78125,15.65625 L 8.78125,15.65625 z" transform="matrix(1.2726133,0,0,1.2726133,91.34394,-8.400444)"/><path id="path7023" fill="url(#radialGradient7043)" fill-opacity="1" stroke="none" stroke-dasharray="none" stroke-dashoffset="0" stroke-linecap="round" stroke-linejoin="round" stroke-miterlimit="4" stroke-opacity="1" stroke-width="5" d="M 46.9375,16.5625 A 14.4375,14.4375 0 1 1 18.0625,16.5625 A 14.4375,14.4375 0 1 1 46.9375,16.5625 z" transform="matrix(0.6659299,0,0,0.6659299,90.66513,3.1802349)"/><path id="path7025" fill="none" fill-opacity="1" fill-rule="evenodd" stroke="url(#linearGradient7045)" stroke-dasharray="none" stroke-linecap="round" stroke-linejoin="miter" stroke-miterlimit="4" stroke-opacity="1" stroke-width="4" d="M 112.30785,13.272198 L 125.30785,42.272198" display="inline"/><path id="path7027" fill="#fff" fill-opacity="1" fill-rule="evenodd" stroke="url(#linearGradient7047)" stroke-dasharray="none" stroke-linecap="round" stroke-linejoin="miter" stroke-miterlimit="4" stroke-opacity="1" stroke-width="2" d="M 112.30785,13.272198 L 125.30785,42.272198" display="inline"/><path id="path7029" fill="#fff" fill-opacity="1" stroke="none" stroke-dasharray="none" stroke-dashoffset="0" stroke-linecap="round" stroke-linejoin="round" stroke-miterlimit="4" stroke-opacity="1" stroke-width="4" d="M 15.5,24.75 L 11.728554,24.195391 L 9.4510341,27.075687 L 8.8130572,23.317446 L 5.3699407,22.041456 L 8.7470953,20.273343 L 8.8966522,16.604442 L 11.621825,19.26993 L 15.157373,18.278415 L 13.464468,21.693889 L 15.5,24.75 z" transform="matrix(1.2726133,0,0,1.2726133,91.34394,-8.400444)"/><path id="path7031" fill="#d3d7cf" fill-opacity="1" stroke="none" stroke-dasharray="none" stroke-dashoffset="0" stroke-linecap="round" stroke-linejoin="round" stroke-miterlimit="4" stroke-opacity="1" stroke-width="4" d="M 8.875,15.21875 C 8.1493418,15.229342 7.5589106,15.806042 7.53125,16.53125 L 7.40625,19.4375 L 4.75,20.8125 C 4.2650259,21.059334 3.973054,21.570705 4.0069987,22.11382 C 4.0409435,22.656936 4.3943158,23.127973 4.90625,23.3125 L 7.59375,24.3125 L 8.09375,27.28125 C 8.1850498,27.809176 8.5768185,28.234838 9.0953743,28.369528 C 9.6139302,28.504217 10.163326,28.323014 10.5,27.90625 L 12.28125,25.65625 L 15.3125,26.09375 C 15.837891,26.157882 16.352982,25.912426 16.634107,25.463964 C 16.915232,25.015503 16.911683,24.444929 16.625,24 L 15.03125,21.59375 L 16.375,18.875 C 16.606743,18.392619 16.535142,17.819305 16.19188,17.408736 C 15.848617,16.998167 15.297056,16.826131 14.78125,16.96875 L 12.03125,17.75 L 9.875,15.625 C 9.6116603,15.357912 9.2499982,15.210987 8.875,15.21875 z" display="inline" transform="matrix(0.5838837,0.5838837,-0.5838837,0.5838837,103.75314,7.7505744)"/><path id="path7033" fill="#fff" fill-opacity="1" stroke="none" stroke-dasharray="none" stroke-dashoffset="0" stroke-linecap="round" stroke-linejoin="round" stroke-miterlimit="4" stroke-opacity="1" stroke-width="4" d="M 15.5,24.75 L 11.728554,24.195391 L 9.4510341,27.075687 L 8.8130572,23.317446 L 5.3699407,22.041456 L 8.7470953,20.273343 L 8.8966522,16.604442 L 11.621825,19.26993 L 15.157373,18.278415 L 13.464468,21.693889 L 15.5,24.75 z" display="inline" transform="matrix(0.5838837,0.5838837,-0.5838837,0.5838837,103.75314,7.7505744)"/><path id="path7035" fill="#d3d7cf" fill-opacity="1" stroke="none" stroke-dasharray="none" stroke-dashoffset="0" stroke-linecap="round" stroke-linejoin="round" stroke-miterlimit="4" stroke-opacity="1" stroke-width="4" d="M 8.875,14.6875 C 7.8684979,14.699467 7.046069,15.494482 7,16.5 L 6.875,19.09375 L 4.5,20.34375 C 3.8321089,20.690313 3.4317362,21.398443 3.4790941,22.149404 C 3.526452,22.900365 4.0126126,23.552587 4.71875,23.8125 L 7.125,24.71875 L 7.5625,27.375 C 7.679281,28.123353 8.2294677,28.730815 8.9626379,28.920897 C 9.6958082,29.110978 10.471834,28.847348 10.9375,28.25 L 12.53125,26.21875 L 15.21875,26.625 C 15.965906,26.744438 16.712696,26.40907 17.119797,25.77128 C 17.526897,25.133489 17.516665,24.314916 17.09375,23.6875 L 15.65625,21.53125 L 16.84375,19.125 C 17.168073,18.453244 17.069206,17.653844 16.590999,17.081342 C 16.112791,16.50884 15.343768,16.269218 14.625,16.46875 L 12.1875,17.15625 L 10.25,15.25 C 9.8870302,14.883618 9.3906888,14.680569 8.875,14.6875 z" display="inline" transform="matrix(0.5791026,0.1286037,-0.1286037,0.5791026,84.51644,14.871697)"/><path id="path7037" fill="#fff" fill-opacity="1" stroke="none" stroke-dasharray="none" stroke-dashoffset="0" stroke-linecap="round" stroke-linejoin="round" stroke-miterlimit="4" stroke-opacity="1" stroke-width="4" d="M 15.5,24.75 L 11.728554,24.195391 L 9.4510341,27.075687 L 8.8130572,23.317446 L 5.3699407,22.041456 L 8.7470953,20.273343 L 8.8966522,16.604442 L 11.621825,19.26993 L 15.157373,18.278415 L 13.464468,21.693889 L 15.5,24.75 z" display="inline" transform="matrix(0.5791026,0.1286037,-0.1286037,0.5791026,84.51644,14.871697)"/><path id="path7039" fill="url(#linearGradient7049)" fill-opacity="1" fill-rule="evenodd" stroke="none" stroke-dasharray="none" stroke-linecap="round" stroke-linejoin="miter" stroke-miterlimit="4" stroke-opacity="1" stroke-width="2" d="M 32.9375,11.9375 C 32.879389,11.943775 32.841679,11.954412 32.78125,11.96875 C 32.480508,12.044301 32.224153,12.283065 32.09375,12.5625 C 31.963347,12.841935 31.958934,13.12817 32.09375,13.40625 L 35.84375,21.75 C 35.837094,21.759353 35.837094,21.771897 35.84375,21.78125 C 35.853103,21.787906 35.865647,21.787906 35.875,21.78125 C 35.884353,21.787906 35.896897,21.787906 35.90625,21.78125 C 35.912906,21.771897 35.912906,21.759353 35.90625,21.75 C 36.140708,21.344226 36.483208,21.082875 36.9375,20.96875 C 37.186308,20.909716 37.448221,20.917711 37.6875,20.96875 C 37.696853,20.975406 37.709397,20.975406 37.71875,20.96875 C 37.725406,20.959397 37.725406,20.946853 37.71875,20.9375 L 33.96875,12.59375 C 33.824845,12.242701 33.483751,11.983006 33.125,11.9375 C 33.064511,11.929827 32.995611,11.931225 32.9375,11.9375 z" display="inline" transform="translate(79.27752,0.2721976)"/></g><path stroke-width="1" style="marker:none" id="rect7659" fill="url(#linearGradient7713)" fill-opacity="1" fill-rule="evenodd" stroke="none" stroke-dashoffset=".677" stroke-linecap="round" stroke-linejoin="miter" stroke-miterlimit="4" stroke-opacity="1" marker-end="none" marker-mid="none" marker-start="none" d="M -60.43502,33.899503 L -41.1005,14.564979 L -37.564966,18.100513 L -56.89949,37.435037 L -60.43502,33.899503 z" display="inline" enable-background="accumulate" overflow="visible" visibility="visible"/><path stroke-width="1" style="marker:none" id="rect7661" fill="#babdb6" fill-opacity="1" fill-rule="evenodd" stroke="#c00" stroke-dashoffset=".677" stroke-linecap="round" stroke-linejoin="miter" stroke-miterlimit="4" stroke-opacity="1" marker-end="none" marker-mid="none" marker-start="none" d="M -59.435026,32.899501 L -42.100501,15.564977 M -38.564967,19.100511 L -55.899492,36.435035" display="inline" enable-background="accumulate" overflow="visible" visibility="visible"/><path id="path7680" fill="none" fill-opacity="1" fill-rule="evenodd" stroke="url(#linearGradient7711)" stroke-dashoffset=".677" stroke-linecap="round" stroke-linejoin="miter" stroke-miterlimit="4" stroke-opacity="1" stroke-width="1" marker-end="none" marker-mid="none" marker-start="none" d="M -56.886446,36.073709 L -38.921514,18.108777 M -41.087029,15.943262 L -59.051961,33.908194" display="inline" enable-background="accumulate" opacity=".448" overflow="visible" visibility="visible" style="marker:none"/></g></g></svg>