<svg xmlns="http://www.w3.org/2000/svg" xmlns:svg="http://www.w3.org/2000/svg" xmlns:xlink="http://www.w3.org/1999/xlink" id="svg2" width="48" height="48" version="1.0"><defs id="defs4"><linearGradient id="linearGradient7735"><stop id="stop7737" offset="0" stop-color="#000" stop-opacity="1"/><stop id="stop7739" offset="1" stop-color="#000" stop-opacity="0"/></linearGradient><linearGradient id="linearGradient3220"><stop id="stop3222" offset="0" stop-color="#2e3436" stop-opacity="1"/><stop id="stop3228" offset=".644" stop-color="#888a85" stop-opacity="1"/><stop id="stop3224" offset="1" stop-color="#555753" stop-opacity="1"/></linearGradient><linearGradient id="linearGradient3241"><stop id="stop3243" offset="0" stop-color="#1b1f20" stop-opacity="1"/><stop id="stop3245" offset="1" stop-color="#babdb6" stop-opacity="1"/></linearGradient><linearGradient id="linearGradient3251"><stop id="stop3253" offset="0" stop-color="#fff" stop-opacity="1"/><stop id="stop3255" offset="1" stop-color="#fff" stop-opacity="0"/></linearGradient><linearGradient id="linearGradient3339"><stop id="stop3341" offset="0" stop-color="#fff" stop-opacity="1"/><stop id="stop3343" offset="1" stop-color="#fff" stop-opacity="0"/></linearGradient><linearGradient id="linearGradient3338"><stop id="stop3340" offset="0" stop-color="#eeeeec" stop-opacity="1"/><stop id="stop3346" offset=".789" stop-color="#fff" stop-opacity="1"/><stop id="stop3342" offset="1" stop-color="#eeeeec" stop-opacity="1"/></linearGradient><radialGradient id="radialGradient6575" cx="32.5" cy="16.563" r="14.438" fx="32.5" fy="16.563" gradientUnits="userSpaceOnUse" xlink:href="#linearGradient3251"/><linearGradient id="linearGradient6581" x1="31.994" x2="37.724" y1="16.859" y2="16.859" gradientUnits="userSpaceOnUse" xlink:href="#linearGradient3338"/><linearGradient id="linearGradient6594" x1="42.906" x2="44.813" y1="42.219" y2="41.406" gradientTransform="translate(79.80785,-3.2278024)" gradientUnits="userSpaceOnUse" xlink:href="#linearGradient3220"/><linearGradient id="linearGradient6597" x1="39" x2="36.375" y1="26.125" y2="20.438" gradientTransform="translate(79.80785,-3.2278024)" gradientUnits="userSpaceOnUse" xlink:href="#linearGradient3241"/><linearGradient id="linearGradient6601" x1="31" x2="3.259" y1="12.875" y2="24.894" gradientTransform="translate(79.80785,3.7721976)" gradientUnits="userSpaceOnUse" xlink:href="#linearGradient3339"/><radialGradient id="radialGradient7741" cx="111.087" cy="42" r="14" fx="111.087" fy="42" gradientTransform="matrix(1,0,0,0.1428571,0,36)" gradientUnits="userSpaceOnUse" xlink:href="#linearGradient7735"/></defs><metadata id="metadata7"/><g id="layer1"><g id="g6820"><g id="g7004" transform="translate(-80,0)"><path id="path6537" fill="url(#linearGradient6601)" fill-opacity="1" fill-rule="evenodd" stroke="none" stroke-linecap="butt" stroke-linejoin="miter" stroke-opacity="1" stroke-width="1" d="M 80.18285,26.022198 C 107.42445,27.74975 90.25665,12.023264 111.30785,11.522198 L 116.59707,22.637237 C 106.9906,18.157926 100.41953,41.170233 80.05785,27.647198 L 80.18285,26.022198 z" display="inline" opacity=".444"/><path id="path6587" fill="#d3d7cf" fill-opacity="1" stroke="none" stroke-dasharray="none" stroke-dashoffset="0" stroke-linecap="round" stroke-linejoin="round" stroke-miterlimit="4" stroke-opacity="1" stroke-width="4" d="M 8.78125,15.65625 C 8.3233049,15.715333 7.9776728,16.100845 7.96875,16.5625 L 7.84375,19.71875 L 4.9375,21.21875 C 4.619715,21.395073 4.4334212,21.740049 4.4602679,22.10248 C 4.4871147,22.464911 4.7222039,22.778674 5.0625,22.90625 L 8,24 L 8.53125,27.21875 C 8.5960772,27.572338 8.8584951,27.857112 9.2056163,27.950568 C 9.5527375,28.044024 9.92266,27.929495 10.15625,27.65625 L 12.125,25.1875 L 15.375,25.65625 C 15.727994,25.697362 16.073643,25.534132 16.266153,25.23541 C 16.458663,24.936687 16.464519,24.55448 16.28125,24.25 L 14.53125,21.625 L 16,18.6875 C 16.166178,18.35617 16.120198,17.957857 15.882903,17.673102 C 15.645607,17.388347 15.262115,17.271295 14.90625,17.375 L 11.875,18.21875 L 9.5625,15.9375 C 9.3605445,15.726505 9.0713512,15.622396 8.78125,15.65625 L 8.78125,15.65625 z" transform="matrix(1.2726133,0,0,1.2726133,91.34394,-8.400444)"/><path id="path6539" fill="url(#radialGradient6575)" fill-opacity="1" stroke="none" stroke-dasharray="none" stroke-dashoffset="0" stroke-linecap="round" stroke-linejoin="round" stroke-miterlimit="4" stroke-opacity="1" stroke-width="5" d="M 46.9375,16.5625 A 14.4375,14.4375 0 1 1 18.0625,16.5625 A 14.4375,14.4375 0 1 1 46.9375,16.5625 z" transform="matrix(0.6659299,0,0,0.6659299,90.66513,3.1802349)"/><path id="path6541" fill="none" fill-opacity="1" fill-rule="evenodd" stroke="url(#linearGradient6597)" stroke-dasharray="none" stroke-linecap="round" stroke-linejoin="miter" stroke-miterlimit="4" stroke-opacity="1" stroke-width="4" d="M 112.30785,13.272198 L 125.30785,42.272198" display="inline"/><path id="path6543" fill="#fff" fill-opacity="1" fill-rule="evenodd" stroke="url(#linearGradient6594)" stroke-dasharray="none" stroke-linecap="round" stroke-linejoin="miter" stroke-miterlimit="4" stroke-opacity="1" stroke-width="2" d="M 112.30785,13.272198 L 125.30785,42.272198" display="inline"/><path id="path6545" fill="#fff" fill-opacity="1" stroke="none" stroke-dasharray="none" stroke-dashoffset="0" stroke-linecap="round" stroke-linejoin="round" stroke-miterlimit="4" stroke-opacity="1" stroke-width="4" d="M 15.5,24.75 L 11.728554,24.195391 L 9.4510341,27.075687 L 8.8130572,23.317446 L 5.3699407,22.041456 L 8.7470953,20.273343 L 8.8966522,16.604442 L 11.621825,19.26993 L 15.157373,18.278415 L 13.464468,21.693889 L 15.5,24.75 z" transform="matrix(1.2726133,0,0,1.2726133,91.34394,-8.400444)"/><path id="path6613" fill="#d3d7cf" fill-opacity="1" stroke="none" stroke-dasharray="none" stroke-dashoffset="0" stroke-linecap="round" stroke-linejoin="round" stroke-miterlimit="4" stroke-opacity="1" stroke-width="4" d="M 8.875,15.21875 C 8.1493418,15.229342 7.5589106,15.806042 7.53125,16.53125 L 7.40625,19.4375 L 4.75,20.8125 C 4.2650259,21.059334 3.973054,21.570705 4.0069987,22.11382 C 4.0409435,22.656936 4.3943158,23.127973 4.90625,23.3125 L 7.59375,24.3125 L 8.09375,27.28125 C 8.1850498,27.809176 8.5768185,28.234838 9.0953743,28.369528 C 9.6139302,28.504217 10.163326,28.323014 10.5,27.90625 L 12.28125,25.65625 L 15.3125,26.09375 C 15.837891,26.157882 16.352982,25.912426 16.634107,25.463964 C 16.915232,25.015503 16.911683,24.444929 16.625,24 L 15.03125,21.59375 L 16.375,18.875 C 16.606743,18.392619 16.535142,17.819305 16.19188,17.408736 C 15.848617,16.998167 15.297056,16.826131 14.78125,16.96875 L 12.03125,17.75 L 9.875,15.625 C 9.6116603,15.357912 9.2499982,15.210987 8.875,15.21875 z" display="inline" transform="matrix(0.5838837,0.5838837,-0.5838837,0.5838837,103.75314,7.7505744)"/><path id="path6547" fill="#fff" fill-opacity="1" stroke="none" stroke-dasharray="none" stroke-dashoffset="0" stroke-linecap="round" stroke-linejoin="round" stroke-miterlimit="4" stroke-opacity="1" stroke-width="4" d="M 15.5,24.75 L 11.728554,24.195391 L 9.4510341,27.075687 L 8.8130572,23.317446 L 5.3699407,22.041456 L 8.7470953,20.273343 L 8.8966522,16.604442 L 11.621825,19.26993 L 15.157373,18.278415 L 13.464468,21.693889 L 15.5,24.75 z" display="inline" transform="matrix(0.5838837,0.5838837,-0.5838837,0.5838837,103.75314,7.7505744)"/><path id="path6617" fill="#d3d7cf" fill-opacity="1" stroke="none" stroke-dasharray="none" stroke-dashoffset="0" stroke-linecap="round" stroke-linejoin="round" stroke-miterlimit="4" stroke-opacity="1" stroke-width="4" d="M 8.875,14.6875 C 7.8684979,14.699467 7.046069,15.494482 7,16.5 L 6.875,19.09375 L 4.5,20.34375 C 3.8321089,20.690313 3.4317362,21.398443 3.4790941,22.149404 C 3.526452,22.900365 4.0126126,23.552587 4.71875,23.8125 L 7.125,24.71875 L 7.5625,27.375 C 7.679281,28.123353 8.2294677,28.730815 8.9626379,28.920897 C 9.6958082,29.110978 10.471834,28.847348 10.9375,28.25 L 12.53125,26.21875 L 15.21875,26.625 C 15.965906,26.744438 16.712696,26.40907 17.119797,25.77128 C 17.526897,25.133489 17.516665,24.314916 17.09375,23.6875 L 15.65625,21.53125 L 16.84375,19.125 C 17.168073,18.453244 17.069206,17.653844 16.590999,17.081342 C 16.112791,16.50884 15.343768,16.269218 14.625,16.46875 L 12.1875,17.15625 L 10.25,15.25 C 9.8870302,14.883618 9.3906888,14.680569 8.875,14.6875 z" display="inline" transform="matrix(0.5791026,0.1286037,-0.1286037,0.5791026,84.51644,14.871697)"/><path id="path6549" fill="#fff" fill-opacity="1" stroke="none" stroke-dasharray="none" stroke-dashoffset="0" stroke-linecap="round" stroke-linejoin="round" stroke-miterlimit="4" stroke-opacity="1" stroke-width="4" d="M 15.5,24.75 L 11.728554,24.195391 L 9.4510341,27.075687 L 8.8130572,23.317446 L 5.3699407,22.041456 L 8.7470953,20.273343 L 8.8966522,16.604442 L 11.621825,19.26993 L 15.157373,18.278415 L 13.464468,21.693889 L 15.5,24.75 z" display="inline" transform="matrix(0.5791026,0.1286037,-0.1286037,0.5791026,84.51644,14.871697)"/><path id="path6551" fill="url(#linearGradient6581)" fill-opacity="1" fill-rule="evenodd" stroke="none" stroke-dasharray="none" stroke-linecap="round" stroke-linejoin="miter" stroke-miterlimit="4" stroke-opacity="1" stroke-width="2" d="M 32.9375,11.9375 C 32.879389,11.943775 32.841679,11.954412 32.78125,11.96875 C 32.480508,12.044301 32.224153,12.283065 32.09375,12.5625 C 31.963347,12.841935 31.958934,13.12817 32.09375,13.40625 L 35.84375,21.75 C 35.837094,21.759353 35.837094,21.771897 35.84375,21.78125 C 35.853103,21.787906 35.865647,21.787906 35.875,21.78125 C 35.884353,21.787906 35.896897,21.787906 35.90625,21.78125 C 35.912906,21.771897 35.912906,21.759353 35.90625,21.75 C 36.140708,21.344226 36.483208,21.082875 36.9375,20.96875 C 37.186308,20.909716 37.448221,20.917711 37.6875,20.96875 C 37.696853,20.975406 37.709397,20.975406 37.71875,20.96875 C 37.725406,20.959397 37.725406,20.946853 37.71875,20.9375 L 33.96875,12.59375 C 33.824845,12.242701 33.483751,11.983006 33.125,11.9375 C 33.064511,11.929827 32.995611,11.931225 32.9375,11.9375 z" display="inline" transform="translate(79.27752,0.2721976)"/></g><path stroke-width="1" style="marker:none" id="path7733" fill="url(#radialGradient7741)" fill-opacity="1" fill-rule="evenodd" stroke="none" stroke-dasharray="none" stroke-dashoffset=".677" stroke-linecap="round" stroke-linejoin="miter" stroke-miterlimit="4" stroke-opacity="1" marker-end="none" marker-mid="none" marker-start="none" d="M 124,42 A 14,2 0 1 1 96,42 A 14,2 0 1 1 124,42 z" display="inline" enable-background="accumulate" opacity=".06" overflow="visible" transform="matrix(0.9196428,0,0,1,-64.035703,1)" visibility="visible"/></g></g></svg>