<svg xmlns="http://www.w3.org/2000/svg" xmlns:svg="http://www.w3.org/2000/svg" xmlns:xlink="http://www.w3.org/1999/xlink" id="svg2" width="48" height="48" version="1.0"><defs id="defs4"><linearGradient id="linearGradient7434"><stop id="stop7436" offset="0" stop-color="#fcaf3e" stop-opacity="1"/><stop id="stop7438" offset="1" stop-color="#fcaf3e" stop-opacity="0"/></linearGradient><linearGradient id="linearGradient7426"><stop id="stop7428" offset="0" stop-color="#fcaf3e" stop-opacity="1"/><stop id="stop7430" offset="1" stop-color="#fcaf3e" stop-opacity="0"/></linearGradient><linearGradient id="linearGradient7416"><stop id="stop7418" offset="0" stop-color="#fcaf3e" stop-opacity="1"/><stop id="stop7420" offset="1" stop-color="#fcaf3e" stop-opacity="0"/></linearGradient><linearGradient id="linearGradient7400"><stop id="stop7402" offset="0" stop-color="#fcaf3e" stop-opacity="1"/><stop id="stop7404" offset="1" stop-color="#fcaf3e" stop-opacity="0"/></linearGradient><linearGradient id="linearGradient7392"><stop id="stop7394" offset="0" stop-color="#fcaf3e" stop-opacity="1"/><stop id="stop7396" offset="1" stop-color="#fcaf3e" stop-opacity="0"/></linearGradient><linearGradient id="linearGradient7384"><stop id="stop7386" offset="0" stop-color="#fcaf3e" stop-opacity="1"/><stop id="stop7388" offset="1" stop-color="#fcaf3e" stop-opacity="0"/></linearGradient><linearGradient id="linearGradient7376"><stop id="stop7378" offset="0" stop-color="#fcaf3e" stop-opacity="1"/><stop id="stop7380" offset="1" stop-color="#fcaf3e" stop-opacity="0"/></linearGradient><linearGradient id="linearGradient7368"><stop id="stop7370" offset="0" stop-color="#fcaf3e" stop-opacity="1"/><stop id="stop7372" offset="1" stop-color="#fcaf3e" stop-opacity="0"/></linearGradient><linearGradient id="linearGradient3339"><stop id="stop3341" offset="0" stop-color="#fff" stop-opacity="1"/><stop id="stop3343" offset="1" stop-color="#fff" stop-opacity="0"/></linearGradient><linearGradient id="linearGradient3355"><stop id="stop3357" offset="0" stop-color="#6f716c" stop-opacity="1"/><stop id="stop3359" offset="1" stop-color="#888a85" stop-opacity="0"/></linearGradient><linearGradient id="linearGradient3331"><stop id="stop3333" offset="0" stop-color="#d3d7cf" stop-opacity="1"/><stop id="stop3335" offset="1" stop-color="#d3d7cf" stop-opacity="0"/></linearGradient><linearGradient id="linearGradient3315"><stop id="stop3317" offset="0" stop-color="#fff" stop-opacity="1"/><stop id="stop3319" offset="1" stop-color="#fff" stop-opacity="0"/></linearGradient><linearGradient id="linearGradient3307"><stop id="stop3309" offset="0" stop-color="#888a85" stop-opacity="1"/><stop id="stop3311" offset="1" stop-color="#888a85" stop-opacity="0"/></linearGradient><linearGradient id="linearGradient7468" x1="37.693" x2="38.666" y1="51.447" y2="55.526" gradientUnits="userSpaceOnUse" xlink:href="#linearGradient3331"/><linearGradient id="linearGradient7470" x1="32.478" x2="38.045" y1="45.684" y2="56.753" gradientUnits="userSpaceOnUse" xlink:href="#linearGradient3355"/><linearGradient id="linearGradient7472" x1="33.375" x2="33.375" y1="38.437" y2="56.437" gradientUnits="userSpaceOnUse" xlink:href="#linearGradient3315"/><linearGradient id="linearGradient7474" x1="36.202" x2="33.375" y1="37.667" y2="51.437" gradientUnits="userSpaceOnUse" xlink:href="#linearGradient3307"/><linearGradient id="linearGradient6970" x1="21" x2=".25" y1="21.125" y2="25.769" gradientTransform="translate(155.80785,6.772198)" gradientUnits="userSpaceOnUse" xlink:href="#linearGradient3339"/><radialGradient id="radialGradient6988" cx="25" cy="29" r="9.5" fx="25" fy="29" gradientTransform="matrix(1,0,0,1.4210526,159,-11.210526)" gradientUnits="userSpaceOnUse" xlink:href="#linearGradient7376"/><radialGradient id="radialGradient6990" cx="16" cy="23.429" r="15.5" fx="16" fy="23.429" gradientTransform="matrix(1,0,0,0.2258065,159,15.709677)" gradientUnits="userSpaceOnUse" xlink:href="#linearGradient7368"/><radialGradient id="radialGradient6992" cx="19.5" cy="9.688" r="15" fx="19.5" fy="9.688" gradientTransform="matrix(1,0,0,0.4541667,159,6.2877604)" gradientUnits="userSpaceOnUse" xlink:href="#linearGradient7434"/><radialGradient id="radialGradient6994" cx="29" cy="9" r="5.5" fx="29" fy="9" gradientTransform="matrix(1,0,0,1.3636364,159,-2.2727273)" gradientUnits="userSpaceOnUse" xlink:href="#linearGradient7400"/><radialGradient id="radialGradient6996" cx="35" cy="9" r="1.5" fx="35" fy="9" gradientTransform="matrix(1,0,0,5,159,-35)" gradientUnits="userSpaceOnUse" xlink:href="#linearGradient7416"/><radialGradient id="radialGradient6998" cx="41" cy="12" r="7.5" fx="41" fy="12" gradientTransform="matrix(1,0,0,0.6,159,5.8)" gradientUnits="userSpaceOnUse" xlink:href="#linearGradient7426"/><radialGradient id="radialGradient7000" cx="41" cy="18" r="7.5" fx="41" fy="18" gradientTransform="matrix(1,0,0,0.3333333,159,13)" gradientUnits="userSpaceOnUse" xlink:href="#linearGradient7392"/><radialGradient id="radialGradient7002" cx="35" cy="28" r="1.5" fx="35" fy="28" gradientTransform="matrix(1,0,0,8.3333333,159,-204.33333)" gradientUnits="userSpaceOnUse" xlink:href="#linearGradient7384"/></defs><metadata id="metadata7"/><g id="layer1"><g id="g6913" transform="translate(-160,0)"><path id="path6968" fill="url(#linearGradient6970)" fill-opacity="1" fill-rule="evenodd" stroke="none" stroke-linecap="butt" stroke-linejoin="miter" stroke-opacity="1" stroke-width="1" d="M 156.18285,29.022198 C 183.42445,30.74975 164.38165,12.148264 190.05785,15.397198 L 193.59707,25.637237 C 183.7406,18.157926 176.41953,44.17023 156.05785,30.647198 L 156.18285,29.022198 z" display="inline" opacity=".602"/><g id="g7454" display="inline" transform="matrix(0.8660254,0.4999999,-0.4999999,0.8660254,183.48051,-26.653051)"><g id="g7456" transform="translate(-60.17678,0.431825)"><path id="path7458" fill="url(#linearGradient7468)" fill-opacity="1" fill-rule="nonzero" stroke="url(#linearGradient7470)" stroke-dasharray="none" stroke-dashoffset="1.4" stroke-linecap="round" stroke-linejoin="round" stroke-miterlimit="4" stroke-opacity="1" stroke-width="1" marker-end="none" marker-mid="none" marker-start="none" d="M 32.5,24.1875 C 30.13715,25.312159 28.5,27.710447 28.5,30.5 C 28.5,33.289555 30.137147,35.687838 32.5,36.8125 L 32.5,60.521668 L 38.53125,60.521668 L 38.53125,36.8125 C 40.880361,35.682677 42.5,33.279516 42.5,30.5 C 42.5,27.720486 40.880357,25.31732 38.53125,24.1875 L 38.53125,30.5 L 35.515625,31.5 L 32.5,30.5 L 32.5,24.1875 z" display="inline" opacity="1" overflow="visible" transform="matrix(0.707107,-0.707107,0.707107,0.707107,44.01958,36.46818)" visibility="visible" style="marker:none"/><path id="path7460" fill="none" fill-opacity="1" fill-rule="nonzero" stroke="url(#linearGradient7472)" stroke-dashoffset="1.4" stroke-linecap="round" stroke-linejoin="miter" stroke-miterlimit="4" stroke-opacity="1" stroke-width="1" marker-end="none" marker-mid="none" marker-start="none" d="M 31.5,26.34375 C 30.359137,27.432066 29.5,28.792056 29.5,30.5 C 29.5,32.900502 30.909032,34.940748 32.9375,35.90625 C 33.284845,36.073728 33.504061,36.426909 33.5,36.8125 L 33.499999,61.49957 L 37.531249,61.49957 L 37.53125,36.8125 C 37.527189,36.426909 37.746405,36.073728 38.09375,35.90625 C 40.107408,34.937766 41.5,32.893233 41.5,30.5 C 41.5,28.802203 40.65724,27.433848 39.53125,26.34375 L 39.53125,30.5 C 39.527628,30.92786 39.250736,31.305441 38.84375,31.4375 L 35.8125,32.4375 C 35.60958,32.504668 35.39042,32.504668 35.1875,32.4375 L 32.1875,31.4375 C 31.780514,31.305441 31.503622,30.92786 31.5,30.5 L 31.5,26.34375 z" display="inline" overflow="visible" transform="matrix(0.707107,-0.707107,0.707107,0.707107,44.01958,36.46818)" visibility="visible" style="marker:none"/><rect id="rect7462" width="2" height="15" x="34.5" y="37.5" fill="none" fill-opacity="1" fill-rule="nonzero" stroke="url(#linearGradient7474)" stroke-dasharray="none" stroke-dashoffset="1.4" stroke-linecap="round" stroke-linejoin="miter" stroke-miterlimit="4" stroke-opacity="1" stroke-width="1" marker-end="none" marker-mid="none" marker-start="none" display="inline" opacity=".4" overflow="visible" rx="1" ry="1" transform="matrix(0.707107,-0.707107,0.707107,0.707107,44.01958,36.46818)" visibility="visible" style="marker:none"/></g></g><g id="g6930" transform="translate(158,0)"><g id="g6858" transform="translate(2,1)"><g id="g6860" fill="#fce94f" transform="translate(-4,4)"><path id="path6862" fill="#fce94f" fill-opacity="1" stroke="none" stroke-dasharray="none" stroke-dashoffset="0" stroke-linecap="round" stroke-linejoin="round" stroke-miterlimit="4" stroke-opacity="1" stroke-width="4" d="M 8.875,14.84375 C 7.9422877,14.854407 7.1840177,15.59889 7.15625,16.53125 L 7.03125,19.21875 L 4.5625,20.5 C 3.9644652,20.825162 3.6110686,21.469296 3.6581341,22.148384 C 3.7051996,22.827472 4.1440766,23.416697 4.78125,23.65625 L 7.25,24.59375 L 7.71875,27.34375 C 7.8208971,28.032556 8.3240002,28.59406 8.9974997,28.770939 C 9.6709992,28.947817 10.385081,28.705978 10.8125,28.15625 L 12.46875,26.0625 L 15.25,26.46875 C 15.928348,26.563328 16.599051,26.251017 16.963264,25.670974 C 17.327477,25.090931 17.317391,24.351148 16.9375,23.78125 L 15.46875,21.5625 L 16.71875,19.0625 C 17.038119,18.444591 16.958664,17.695828 16.516727,17.158705 C 16.074791,16.621583 15.355356,16.399386 14.6875,16.59375 L 12.125,17.3125 L 10.125,15.34375 C 9.7923397,15.016053 9.34189,14.835873 8.875,14.84375 L 8.875,14.84375 z" display="inline" transform="matrix(0.5791026,0.1286037,-0.1286037,0.5791026,5.516439,11.871697)"/></g><g id="g6864" transform="translate(-4,4)"><path id="path6866" fill="#fff" fill-opacity="1" stroke="none" stroke-dasharray="none" stroke-dashoffset="0" stroke-linecap="round" stroke-linejoin="round" stroke-miterlimit="4" stroke-opacity="1" stroke-width="4" d="M 15.5,24.75 L 11.728554,24.195391 L 9.4510341,27.075687 L 8.8130572,23.317446 L 5.3699407,22.041456 L 8.7470953,20.273343 L 8.8966522,16.604442 L 11.621825,19.26993 L 15.157373,18.278415 L 13.464468,21.693889 L 15.5,24.75 z" display="inline" transform="matrix(0.5791026,0.1286037,-0.1286037,0.5791026,5.516439,11.871697)"/></g></g><g id="g6868" transform="translate(2,1)"><path id="path6870" fill="#fce94f" fill-opacity="1" stroke="none" stroke-dasharray="none" stroke-dashoffset="0" stroke-linecap="round" stroke-linejoin="round" stroke-miterlimit="4" stroke-opacity="1" stroke-width="4" d="M 8.71875,15.15625 C 8.0246757,15.252521 7.498633,15.831168 7.46875,16.53125 L 7.34375,19.375 L 4.71875,20.75 C 4.2227356,21.018145 3.927043,21.549423 3.9605465,22.112281 C 3.99405,22.67514 4.3506787,23.167589 4.875,23.375 L 7.5,24.34375 L 8,27.3125 C 8.0979814,27.874636 8.5164154,28.327115 9.0691876,28.468678 C 9.6219598,28.610242 10.206378,28.414591 10.5625,27.96875 L 12.3125,25.75 L 15.28125,26.1875 C 15.855033,26.283967 16.430937,26.028266 16.744191,25.537955 C 17.057445,25.047645 17.04743,24.417606 16.71875,23.9375 L 15.15625,21.59375 L 16.46875,18.9375 C 16.744468,18.41723 16.678343,17.781907 16.301393,17.329568 C 15.924444,16.877229 15.311461,16.697621 14.75,16.875 L 12.03125,17.65625 L 9.9375,15.5625 C 9.6166251,15.244771 9.1660874,15.094592 8.71875,15.15625 z" display="inline" transform="matrix(0.5398906,0.495078,-0.495078,0.5398906,45.651768,5.463435)"/><g id="g6872" transform="matrix(1.2348382,0,0,1.2348382,57.67711,11.977747)"><path id="path6874" fill="#fff" fill-opacity="1" stroke="none" stroke-dasharray="none" stroke-dashoffset="0" stroke-linecap="round" stroke-linejoin="round" stroke-miterlimit="4" stroke-opacity="1" stroke-width="4" d="M 15.5,24.75 L 11.728554,24.195391 L 9.4510341,27.075687 L 8.8130572,23.317446 L 5.3699407,22.041456 L 8.7470953,20.273343 L 8.8966522,16.604442 L 11.621825,19.26993 L 15.157373,18.278415 L 13.464468,21.693889 L 15.5,24.75 z" display="inline" transform="matrix(0.4372157,0.4009254,-0.4009254,0.4372157,-9.738395,-5.2754374)"/></g></g><g id="g6876" transform="translate(2,1)"><path id="path6878" fill="#fce94f" fill-opacity="1" stroke="none" stroke-dasharray="none" stroke-dashoffset="0" stroke-linecap="round" stroke-linejoin="round" stroke-miterlimit="4" stroke-opacity="1" stroke-width="4" d="M 8.65625,14.5 C 7.6356013,14.626724 6.8559636,15.472433 6.8125,16.5 L 6.71875,18.96875 L 4.40625,20.15625 C 3.6647452,20.536101 3.2170455,21.317543 3.2643832,22.149334 C 3.3117209,22.981124 3.8451874,23.706728 4.625,24 L 6.9375,24.875 L 7.375,27.40625 C 7.5120443,28.224823 8.1172907,28.886458 8.9204518,29.095685 C 9.7236129,29.304912 10.574743,29.022669 11.09375,28.375 L 12.625,26.46875 L 15.1875,26.84375 C 16.011133,26.966942 16.829962,26.592974 17.276194,25.88982 C 17.722426,25.186667 17.712157,24.286541 17.25,23.59375 L 15.875,21.53125 L 17.03125,19.21875 C 17.400627,18.476329 17.299715,17.586223 16.773511,16.945334 C 16.247308,16.304445 15.393871,16.032203 14.59375,16.25 L 12.21875,16.90625 L 10.375,15.09375 C 9.9215268,14.645819 9.289513,14.427487 8.65625,14.5 z" display="inline" transform="matrix(0.468831,-0.1476355,0.1476355,0.468831,34.662356,5.868036)"/><g id="g6880" transform="matrix(0.4142938,-0.717578,0.717578,0.4142938,42.48245,1.065559)"><path id="path6882" fill="#fff" fill-opacity="1" stroke="none" stroke-dasharray="none" stroke-dashoffset="0" stroke-linecap="round" stroke-linejoin="round" stroke-miterlimit="4" stroke-opacity="1" stroke-width="4" d="M 15.5,24.75 L 11.728554,24.195391 L 9.4510341,27.075687 L 8.8130572,23.317446 L 5.3699407,22.041456 L 8.7470953,20.273343 L 8.8966522,16.604442 L 11.621825,19.26993 L 15.157373,18.278415 L 13.464468,21.693889 L 15.5,24.75 z" display="inline" transform="matrix(0.4372157,0.4009254,-0.4009254,0.4372157,-9.738395,-5.2754374)"/></g></g><g id="g6884" transform="translate(2,1)"><path id="path6886" fill="#fce94f" fill-opacity="1" stroke="none" stroke-dasharray="none" stroke-dashoffset="0" stroke-linecap="round" stroke-linejoin="round" stroke-miterlimit="4" stroke-opacity="1" stroke-width="4" d="M 8.65625,14.625 C 7.7022389,14.746246 6.9754873,15.539066 6.9375,16.5 L 6.84375,19.0625 L 4.46875,20.28125 C 3.7766556,20.639163 3.360807,21.371617 3.4081467,22.149341 C 3.4554865,22.927065 3.9571041,23.603674 4.6875,23.875 L 7.0625,24.75 L 7.5,27.375 C 7.6309698,28.136232 8.1950462,28.750518 8.9423784,28.945767 C 9.6897107,29.141016 10.482171,28.881141 10.96875,28.28125 L 12.5625,26.28125 L 15.21875,26.6875 C 15.98248,26.789501 16.735507,26.43653 17.145689,25.784273 C 17.555871,25.132017 17.547786,24.300408 17.125,23.65625 L 15.71875,21.53125 L 16.90625,19.15625 C 17.255221,18.461233 17.162277,17.625909 16.669068,17.024599 C 16.175859,16.423289 15.374855,16.168732 14.625,16.375 L 12.1875,17.0625 L 10.28125,15.1875 C 9.8544507,14.760811 9.2555051,14.553483 8.65625,14.625 z" display="inline" transform="matrix(0.5791026,0.1286037,-0.1286037,0.5791026,34.194564,-5.300461)"/><g id="g6888" transform="matrix(0.8660254,-0.5,0.5,0.8660254,45.26598,-5.600996)"><path id="path6890" fill="#fff" fill-opacity="1" stroke="none" stroke-dasharray="none" stroke-dashoffset="0" stroke-linecap="round" stroke-linejoin="round" stroke-miterlimit="4" stroke-opacity="1" stroke-width="4" d="M 15.5,24.75 L 11.728554,24.195391 L 9.4510341,27.075687 L 8.8130572,23.317446 L 5.3699407,22.041456 L 8.7470953,20.273343 L 8.8966522,16.604442 L 11.621825,19.26993 L 15.157373,18.278415 L 13.464468,21.693889 L 15.5,24.75 z" display="inline" transform="matrix(0.4372157,0.4009254,-0.4009254,0.4372157,-9.738395,-5.2754374)"/></g></g><g id="g6892" transform="translate(2,1)"><path id="path6894" fill="#fce94f" fill-opacity="1" stroke="none" stroke-dasharray="none" stroke-dashoffset="0" stroke-linecap="round" stroke-linejoin="round" stroke-miterlimit="4" stroke-opacity="1" stroke-width="4" d="M 8.6875,14.75 C 7.7906647,14.857263 7.1031279,15.597687 7.0625,16.5 L 6.9375,19.15625 L 4.53125,20.40625 C 3.8973875,20.744831 3.5176053,21.42047 3.5578387,22.137966 C 3.5980721,22.855461 4.0510086,23.484406 4.71875,23.75 L 7.1875,24.65625 L 7.625,27.375 C 7.7507179,28.086377 8.2798136,28.659065 8.9790345,28.840594 C 9.6782555,29.022122 10.419113,28.779134 10.875,28.21875 L 12.5,26.15625 L 15.21875,26.5625 C 15.939564,26.670013 16.656168,26.343402 17.047873,25.72883 C 17.439578,25.114258 17.433066,24.326759 17.03125,23.71875 L 15.59375,21.5625 L 16.8125,19.09375 C 17.135108,18.439896 17.042661,17.657416 16.576561,17.096745 C 16.110461,16.536074 15.358032,16.302253 14.65625,16.5 L 12.15625,17.21875 L 10.21875,15.28125 C 9.8175134,14.877595 9.2525191,14.681576 8.6875,14.75 z" display="inline" transform="matrix(0.3221827,0.5061294,-0.5061294,0.3221827,37.016097,-6.214715)"/><g id="g6896" transform="matrix(0.9769386,0.2617699,-0.2617699,0.9769386,45.14896,1.488282)"><path id="path6898" fill="#fff" fill-opacity="1" stroke="none" stroke-dasharray="none" stroke-dashoffset="0" stroke-linecap="round" stroke-linejoin="round" stroke-miterlimit="4" stroke-opacity="1" stroke-width="4" d="M 15.5,24.75 L 11.728554,24.195391 L 9.4510341,27.075687 L 8.8130572,23.317446 L 5.3699407,22.041456 L 8.7470953,20.273343 L 8.8966522,16.604442 L 11.621825,19.26993 L 15.157373,18.278415 L 13.464468,21.693889 L 15.5,24.75 z" display="inline" transform="matrix(0.4372157,0.4009254,-0.4009254,0.4372157,-9.738395,-5.2754374)"/></g></g><g id="g6900" transform="translate(2,1)"><path id="path6902" fill="#fce94f" fill-opacity="1" stroke="none" stroke-dasharray="none" stroke-dashoffset="0" stroke-linecap="round" stroke-linejoin="round" stroke-miterlimit="4" stroke-opacity="1" stroke-width="4" d="M 8.84375,13.8125 C 7.379554,13.844155 6.1906927,15.005686 6.125,16.46875 L 6.03125,18.5625 L 4.09375,19.5625 C 3.1258523,20.072601 2.5468644,21.102711 2.6142724,22.194721 C 2.6816805,23.286731 3.382964,24.237811 4.40625,24.625 L 6.3125,25.34375 L 6.6875,27.53125 C 6.8699306,28.619579 7.6784517,29.497163 8.7482149,29.767989 C 9.817978,30.038815 10.946684,29.651668 11.625,28.78125 L 12.90625,27.1875 L 15.09375,27.5 C 16.176551,27.654968 17.249662,27.160958 17.836042,26.237578 C 18.422422,25.314198 18.41321,24.132873 17.8125,23.21875 L 16.6875,21.5 L 17.65625,19.53125 C 18.160745,18.543558 18.030311,17.350557 17.324311,16.495211 C 16.618312,15.639866 15.47167,15.28564 14.40625,15.59375 L 12.4375,16.15625 L 10.875,14.625 C 10.337308,14.088103 9.6033868,13.794535 8.84375,13.8125 z" display="inline" transform="matrix(0.3509813,7.7943874e-2,-7.7943874e-2,0.3509813,20.716829,2.055163)"/><g id="g6904" transform="matrix(0.5248789,-0.303039,0.303039,0.5248789,27.42697,1.873015)"><path id="path6906" fill="#fff" fill-opacity="1" stroke="none" stroke-dasharray="none" stroke-dashoffset="0" stroke-linecap="round" stroke-linejoin="round" stroke-miterlimit="4" stroke-opacity="1" stroke-width="4" d="M 15.5,24.75 L 11.728554,24.195391 L 9.4510341,27.075687 L 8.8130572,23.317446 L 5.3699407,22.041456 L 8.7470953,20.273343 L 8.8966522,16.604442 L 11.621825,19.26993 L 15.157373,18.278415 L 13.464468,21.693889 L 15.5,24.75 z" display="inline" transform="matrix(0.4372157,0.4009254,-0.4009254,0.4372157,-9.738395,-5.2754374)"/></g></g><g id="g6908" transform="translate(2,1)"><path id="path6910" fill="#fce94f" fill-opacity="1" stroke="none" stroke-dasharray="none" stroke-dashoffset="0" stroke-linecap="round" stroke-linejoin="round" stroke-miterlimit="4" stroke-opacity="1" stroke-width="4" d="M 8.75,15.3125 C 8.127075,15.388303 7.650806,15.904261 7.625,16.53125 L 7.5,19.5 L 4.78125,20.90625 C 4.3476086,21.147287 4.092175,21.617078 4.125621,22.112078 C 4.1590669,22.607078 4.4753756,23.038238 4.9375,23.21875 L 7.6875,24.25 L 8.1875,27.28125 C 8.2830337,27.768732 8.6518288,28.15701 9.1337522,28.277491 C 9.6156756,28.397972 10.123802,28.228924 10.4375,27.84375 L 12.25,25.5625 L 15.3125,26.03125 C 15.820335,26.112008 16.327232,25.881221 16.599766,25.445166 C 16.8723,25.009112 16.857625,24.452343 16.5625,24.03125 L 14.9375,21.59375 L 16.3125,18.84375 C 16.526354,18.390883 16.456633,17.854915 16.134036,17.471831 C 15.811439,17.088747 15.295155,16.928834 14.8125,17.0625 L 12,17.84375 L 9.8125,15.6875 C 9.5352877,15.405065 9.1430816,15.266639 8.75,15.3125 L 8.75,15.3125 z" transform="matrix(1.2726133,0,0,1.2726133,8.34394,-7.400444)"/><g id="g6912" transform="translate(-4,1)"><path id="path6914" fill="#fff" fill-opacity="1" stroke="none" stroke-dasharray="none" stroke-dashoffset="0" stroke-linecap="round" stroke-linejoin="round" stroke-miterlimit="4" stroke-opacity="1" stroke-width="4" d="M 15.5,24.75 L 11.728554,24.195391 L 9.4510341,27.075687 L 8.8130572,23.317446 L 5.3699407,22.041456 L 8.7470953,20.273343 L 8.8966522,16.604442 L 11.621825,19.26993 L 15.157373,18.278415 L 13.464468,21.693889 L 15.5,24.75 z" transform="matrix(1.2726133,0,0,1.2726133,12.34394,-8.400444)"/></g></g><g id="g6916" transform="translate(2,1)"><path id="path6918" fill="#fce94f" fill-opacity="1" stroke="none" stroke-dasharray="none" stroke-dashoffset="0" stroke-linecap="round" stroke-linejoin="round" stroke-miterlimit="4" stroke-opacity="1" stroke-width="4" d="M 8.71875,15.0625 C 7.9705926,15.155019 7.4007829,15.777835 7.375,16.53125 L 7.25,19.3125 L 4.65625,20.65625 C 4.1092959,20.934469 3.7809959,21.51209 3.8218152,22.124379 C 3.8626345,22.736668 4.2647045,23.265598 4.84375,23.46875 L 7.46875,24.4375 L 7.9375,27.3125 C 8.0491701,27.895768 8.4877133,28.362042 9.0630482,28.509221 C 9.6383832,28.656399 10.246961,28.457994 10.625,28 L 12.34375,25.84375 L 15.28125,26.28125 C 15.883488,26.373092 16.482949,26.099565 16.808258,25.584492 C 17.133567,25.069419 17.122965,24.410588 16.78125,23.90625 L 15.25,21.59375 L 16.53125,18.96875 C 16.798492,18.427378 16.723038,17.779557 16.338528,17.314097 C 15.954017,16.848636 15.332085,16.652254 14.75,16.8125 L 12.0625,17.5625 L 9.96875,15.5 C 9.6398358,15.172397 9.1801703,15.011514 8.71875,15.0625 L 8.71875,15.0625 z" display="inline" transform="matrix(0.5838837,0.5838837,-0.5838837,0.5838837,20.75314,8.750574)"/><g id="g6920" transform="translate(-4,1)"><path id="path6922" fill="#fff" fill-opacity="1" stroke="none" stroke-dasharray="none" stroke-dashoffset="0" stroke-linecap="round" stroke-linejoin="round" stroke-miterlimit="4" stroke-opacity="1" stroke-width="4" d="M 15.5,24.75 L 11.728554,24.195391 L 9.4510341,27.075687 L 8.8130572,23.317446 L 5.3699407,22.041456 L 8.7470953,20.273343 L 8.8966522,16.604442 L 11.621825,19.26993 L 15.157373,18.278415 L 13.464468,21.693889 L 15.5,24.75 z" display="inline" transform="matrix(0.5838837,0.5838837,-0.5838837,0.5838837,24.75314,7.750574)"/></g></g><g id="g6924" transform="translate(2,1)"><path id="path6926" fill="#fce94f" fill-opacity="1" stroke="none" stroke-dasharray="none" stroke-dashoffset="0" stroke-linecap="round" stroke-linejoin="round" stroke-miterlimit="4" stroke-opacity="1" stroke-width="4" d="M 8.875,14.6875 C 7.8684979,14.699467 7.046069,15.494482 7,16.5 L 6.875,19.09375 L 4.5,20.34375 C 3.8321089,20.690313 3.4317364,21.398443 3.4790942,22.149404 C 3.5264521,22.900364 4.0126127,23.552587 4.71875,23.8125 L 7.125,24.71875 L 7.5625,27.375 C 7.6792811,28.123353 8.2294678,28.730815 8.962638,28.920896 C 9.6958082,29.110978 10.471834,28.847348 10.9375,28.25 L 12.53125,26.21875 L 15.21875,26.625 C 15.965906,26.744438 16.712696,26.40907 17.119796,25.77128 C 17.526897,25.133489 17.516665,24.314916 17.09375,23.6875 L 15.65625,21.53125 L 16.84375,19.125 C 17.168073,18.453244 17.069206,17.653844 16.590999,17.081342 C 16.112791,16.50884 15.343768,16.269218 14.625,16.46875 L 12.1875,17.15625 L 10.25,15.25 C 9.8870302,14.883618 9.3906888,14.680569 8.875,14.6875 L 8.875,14.6875 z" display="inline" transform="matrix(0.526085,0.2741045,-0.2741045,0.526085,30.67156,12.212387)"/><path id="path6928" fill="#fff" fill-opacity="1" stroke="none" stroke-dasharray="none" stroke-dashoffset="0" stroke-linecap="round" stroke-linejoin="round" stroke-miterlimit="4" stroke-opacity="1" stroke-width="4" d="M 15.5,24.75 L 11.728554,24.195391 L 9.4510341,27.075687 L 8.8130572,23.317446 L 5.3699407,22.041456 L 8.7470953,20.273343 L 8.8966522,16.604442 L 11.621825,19.26993 L 15.157373,18.278415 L 13.464468,21.693889 L 15.5,24.75 z" display="inline" transform="matrix(0.526085,0.2741045,-0.2741045,0.526085,30.67156,12.212387)"/></g></g><path id="path6972" fill="none" fill-rule="evenodd" stroke="url(#radialGradient6988)" stroke-linecap="butt" stroke-linejoin="miter" stroke-opacity="1" stroke-width="1" d="M 175,43 L 193,17"/><path id="path6974" fill="none" fill-rule="evenodd" stroke="url(#radialGradient6990)" stroke-linecap="butt" stroke-linejoin="miter" stroke-opacity="1" stroke-width="1" d="M 163,23 L 193,17"/><path id="path6976" fill="none" fill-rule="evenodd" stroke="url(#radialGradient6992)" stroke-linecap="butt" stroke-linejoin="miter" stroke-opacity="1" stroke-width="1" d="M 164,4.375 L 193,17"/><path id="path6978" fill="none" fill-rule="evenodd" stroke="url(#radialGradient6994)" stroke-linecap="butt" stroke-linejoin="miter" stroke-opacity="1" stroke-width="1" d="M 183,3 L 193,17"/><path id="path6980" fill="none" fill-rule="evenodd" stroke="url(#radialGradient6996)" stroke-linecap="butt" stroke-linejoin="miter" stroke-opacity="1" stroke-width="1" d="M 195,3 L 193,17"/><path id="path6982" fill="none" fill-rule="evenodd" stroke="url(#radialGradient6998)" stroke-linecap="butt" stroke-linejoin="miter" stroke-opacity="1" stroke-width="1" d="M 207,9 L 193,17"/><path id="path6984" fill="none" fill-rule="evenodd" stroke="url(#radialGradient7000)" stroke-linecap="butt" stroke-linejoin="miter" stroke-opacity="1" stroke-width="1" d="M 193,17 L 207,21"/><path id="path6986" fill="none" fill-rule="evenodd" stroke="url(#radialGradient7002)" stroke-linecap="butt" stroke-linejoin="miter" stroke-opacity="1" stroke-width="1" d="M 195,41 L 193,17"/></g></g></svg>