<svg xmlns="http://www.w3.org/2000/svg" xmlns:svg="http://www.w3.org/2000/svg" xmlns:xlink="http://www.w3.org/1999/xlink" id="svg2" width="48" height="48" version="1.0"><defs id="defs4"><linearGradient id="linearGradient7735"><stop id="stop7737" offset="0" stop-color="#000" stop-opacity="1"/><stop id="stop7739" offset="1" stop-color="#000" stop-opacity="0"/></linearGradient><linearGradient id="linearGradient7477"><stop id="stop7479" offset="0" stop-color="#c3d9f0" stop-opacity="1"/><stop id="stop7481" offset="1" stop-color="#c3d9f0" stop-opacity="0"/></linearGradient><linearGradient id="linearGradient7434"><stop id="stop7436" offset="0" stop-color="#fcaf3e" stop-opacity="1"/><stop id="stop7438" offset="1" stop-color="#fcaf3e" stop-opacity="0"/></linearGradient><linearGradient id="linearGradient7426"><stop id="stop7428" offset="0" stop-color="#fcaf3e" stop-opacity="1"/><stop id="stop7430" offset="1" stop-color="#fcaf3e" stop-opacity="0"/></linearGradient><linearGradient id="linearGradient7416"><stop id="stop7418" offset="0" stop-color="#fcaf3e" stop-opacity="1"/><stop id="stop7420" offset="1" stop-color="#fcaf3e" stop-opacity="0"/></linearGradient><linearGradient id="linearGradient7400"><stop id="stop7402" offset="0" stop-color="#fcaf3e" stop-opacity="1"/><stop id="stop7404" offset="1" stop-color="#fcaf3e" stop-opacity="0"/></linearGradient><linearGradient id="linearGradient7392"><stop id="stop7394" offset="0" stop-color="#fcaf3e" stop-opacity="1"/><stop id="stop7396" offset="1" stop-color="#fcaf3e" stop-opacity="0"/></linearGradient><linearGradient id="linearGradient7384"><stop id="stop7386" offset="0" stop-color="#fcaf3e" stop-opacity="1"/><stop id="stop7388" offset="1" stop-color="#fcaf3e" stop-opacity="0"/></linearGradient><linearGradient id="linearGradient7376"><stop id="stop7378" offset="0" stop-color="#fcaf3e" stop-opacity="1"/><stop id="stop7380" offset="1" stop-color="#fcaf3e" stop-opacity="0"/></linearGradient><linearGradient id="linearGradient7368"><stop id="stop7370" offset="0" stop-color="#fcaf3e" stop-opacity="1"/><stop id="stop7372" offset="1" stop-color="#fcaf3e" stop-opacity="0"/></linearGradient><linearGradient id="linearGradient7346"><stop id="stop7348" offset="0" stop-color="#729fcf" stop-opacity="1"/><stop id="stop7350" offset="1" stop-color="#729fcf" stop-opacity="0"/></linearGradient><linearGradient id="linearGradient8007"><stop id="stop8009" offset="0" stop-color="#fff" stop-opacity="1"/><stop id="stop8011" offset="1" stop-color="#fff" stop-opacity="0"/></linearGradient><linearGradient id="linearGradient3220"><stop id="stop3222" offset="0" stop-color="#2e3436" stop-opacity="1"/><stop id="stop3228" offset=".644" stop-color="#888a85" stop-opacity="1"/><stop id="stop3224" offset="1" stop-color="#555753" stop-opacity="1"/></linearGradient><linearGradient id="linearGradient3241"><stop id="stop3243" offset="0" stop-color="#1b1f20" stop-opacity="1"/><stop id="stop3245" offset="1" stop-color="#babdb6" stop-opacity="1"/></linearGradient><linearGradient id="linearGradient3251"><stop id="stop3253" offset="0" stop-color="#fff" stop-opacity="1"/><stop id="stop3255" offset="1" stop-color="#fff" stop-opacity="0"/></linearGradient><linearGradient id="linearGradient3339"><stop id="stop3341" offset="0" stop-color="#fff" stop-opacity="1"/><stop id="stop3343" offset="1" stop-color="#fff" stop-opacity="0"/></linearGradient><linearGradient id="linearGradient3338"><stop id="stop3340" offset="0" stop-color="#eeeeec" stop-opacity="1"/><stop id="stop3346" offset=".789" stop-color="#fff" stop-opacity="1"/><stop id="stop3342" offset="1" stop-color="#eeeeec" stop-opacity="1"/></linearGradient><radialGradient id="radialGradient6689" cx="34.25" cy="16.125" r="13.454" fx="34.25" fy="16.125" gradientTransform="matrix(0.7784582,0.1051025,-0.2038205,0.9241321,10.874411,-2.3763916)" gradientUnits="userSpaceOnUse" xlink:href="#linearGradient8007"/><linearGradient id="linearGradient6691" x1="21" x2=".25" y1="21.125" y2="25.769" gradientTransform="translate(76.80785,4.772198)" gradientUnits="userSpaceOnUse" xlink:href="#linearGradient3339"/><radialGradient id="radialGradient6697" cx="32.5" cy="16.563" r="14.438" fx="32.5" fy="16.563" gradientUnits="userSpaceOnUse" xlink:href="#linearGradient3251"/><linearGradient id="linearGradient6699" x1="39" x2="36.375" y1="26.125" y2="20.438" gradientTransform="translate(78.80785,-3.227802)" gradientUnits="userSpaceOnUse" xlink:href="#linearGradient3241"/><linearGradient id="linearGradient6701" x1="42.906" x2="44.813" y1="42.219" y2="41.406" gradientTransform="translate(78.80785,-3.227802)" gradientUnits="userSpaceOnUse" xlink:href="#linearGradient3220"/><linearGradient id="linearGradient6709" x1="31.994" x2="37.724" y1="16.859" y2="16.859" gradientUnits="userSpaceOnUse" xlink:href="#linearGradient3338"/><radialGradient id="radialGradient7352" cx="23.883" cy="5.95" r="19.716" fx="23.883" fy="5.95" gradientTransform="matrix(0.9492154,-0.3479126,0.2311623,0.9965922,86.93512,20.339289)" gradientUnits="userSpaceOnUse" xlink:href="#linearGradient7346"/><radialGradient id="radialGradient7374" cx="16" cy="23.429" r="15.5" fx="16" fy="23.429" gradientTransform="matrix(1,0,0,0.2258065,79,14.709677)" gradientUnits="userSpaceOnUse" xlink:href="#linearGradient7368"/><radialGradient id="radialGradient7382" cx="25" cy="29" r="9.5" fx="25" fy="29" gradientTransform="matrix(1,0,0,1.4210526,79,-12.210526)" gradientUnits="userSpaceOnUse" xlink:href="#linearGradient7376"/><radialGradient id="radialGradient7390" cx="35" cy="28" r="1.5" fx="35" fy="28" gradientTransform="matrix(1,0,0,8.3333333,79,-205.33333)" gradientUnits="userSpaceOnUse" xlink:href="#linearGradient7384"/><radialGradient id="radialGradient7398" cx="41" cy="18" r="7.5" fx="41" fy="18" gradientTransform="matrix(1,0,0,0.3333333,79,12)" gradientUnits="userSpaceOnUse" xlink:href="#linearGradient7392"/><radialGradient id="radialGradient7406" cx="29" cy="9" r="5.5" fx="29" fy="9" gradientTransform="matrix(1,0,0,1.3636364,79,-3.2727273)" gradientUnits="userSpaceOnUse" xlink:href="#linearGradient7400"/><radialGradient id="radialGradient7422" cx="35" cy="9" r="1.5" fx="35" fy="9" gradientTransform="matrix(1,0,0,5,79,-36)" gradientUnits="userSpaceOnUse" xlink:href="#linearGradient7416"/><radialGradient id="radialGradient7432" cx="41" cy="12" r="7.5" fx="41" fy="12" gradientTransform="matrix(1,0,0,0.6,79,4.8)" gradientUnits="userSpaceOnUse" xlink:href="#linearGradient7426"/><radialGradient id="radialGradient7440" cx="19.5" cy="9.688" r="15" fx="19.5" fy="9.688" gradientTransform="matrix(1,0,0,0.4541667,79,5.2877604)" gradientUnits="userSpaceOnUse" xlink:href="#linearGradient7434"/><radialGradient id="radialGradient7483" cx="26.605" cy="10.258" r="6.776" fx="26.605" fy="10.258" gradientTransform="translate(80,0)" gradientUnits="userSpaceOnUse" xlink:href="#linearGradient7477"/><radialGradient id="radialGradient7485" cx="38.184" cy="9.728" r="6.157" fx="38.184" fy="9.728" gradientTransform="matrix(1,0,0,1.0430683,80,-0.4189621)" gradientUnits="userSpaceOnUse" xlink:href="#linearGradient7477"/><radialGradient id="radialGradient7487" cx="38.537" cy="23.958" r="6.334" fx="38.537" fy="23.958" gradientTransform="matrix(1,0,0,1.3349296,80,-8.0243671)" gradientUnits="userSpaceOnUse" xlink:href="#linearGradient7477"/><radialGradient id="radialGradient7489" cx="29.168" cy="28.378" r="3.505" fx="29.168" fy="28.378" gradientTransform="matrix(1,0,0,3.4207667,80,-68.696001)" gradientUnits="userSpaceOnUse" xlink:href="#linearGradient7477"/><radialGradient id="radialGradient7491" cx="20.241" cy="28.201" r="12.432" fx="20.241" fy="28.201" gradientTransform="matrix(1,0,0,0.9928905,80,0.2004958)" gradientUnits="userSpaceOnUse" xlink:href="#linearGradient7477"/><radialGradient id="radialGradient7493" cx="19.887" cy="14.501" r="13.14" fx="19.887" fy="14.501" gradientTransform="matrix(1,0,0,0.179318,80,11.900558)" gradientUnits="userSpaceOnUse" xlink:href="#linearGradient7477"/><radialGradient id="radialGradient7746" cx="111.087" cy="42" r="14" fx="111.087" fy="42" gradientTransform="matrix(1,0,0,0.1428571,0,36)" gradientUnits="userSpaceOnUse" xlink:href="#linearGradient7735"/></defs><metadata id="metadata7"/><g id="layer1"><g id="g6835" transform="translate(-80,0)"><path stroke-width="1" style="marker:none" id="path6767" fill="url(#radialGradient7352)" fill-opacity="1" fill-rule="evenodd" stroke="#fce94f" stroke-dashoffset=".677" stroke-linecap="round" stroke-linejoin="miter" stroke-miterlimit="4" stroke-opacity="0" marker-end="none" marker-mid="none" marker-start="none" d="M 127.70862,27.840931 L 117.78879,24.902374 L 114.6449,38.106978 L 110.51182,27.590316 L 99.58129,36.937286 L 103.21153,24.886923 L 87.46687,23.642048 L 101.98387,17.866922 L 91.37817,9.8289755 L 106.173,11.267534 L 107.81689,-0.93707051 L 113.32497,8.9545915 L 122.88049,0.2326208 L 119.25026,12.282985 L 131.11991,12.152859 L 120.47791,19.302986 L 127.70862,27.840931 z" display="inline" enable-background="accumulate" opacity=".489" overflow="visible" visibility="visible"/><path stroke-width="1" style="marker:none" id="path6619" fill="url(#radialGradient6689)" fill-opacity="1" fill-rule="evenodd" stroke="none" stroke-dasharray="none" stroke-dashoffset=".677" stroke-linecap="round" stroke-linejoin="miter" stroke-miterlimit="4" stroke-opacity="0" marker-end="none" marker-mid="none" marker-start="none" d="M 47.704366,19.806049 L 39.649575,19.668387 L 42.971145,27.011309 L 36.535597,22.165451 L 34.906743,30.058369 L 32.548599,22.355268 L 26.591487,27.783356 L 29.211478,20.165334 L 21.201523,21.055247 L 27.798901,16.43213 L 20.795634,12.443951 L 28.850425,12.581613 L 25.528855,5.2386911 L 31.964403,10.084549 L 33.593257,2.1916308 L 35.951401,9.8947318 L 41.908513,4.4666439 L 39.288522,12.084666 L 47.298477,11.194753 L 40.701099,15.81787 L 47.704366,19.806049 z" display="inline" enable-background="accumulate" opacity=".588" overflow="visible" transform="matrix(0.8660254,-0.5,0.6390546,1.1068751,73.40887,15.026638)" visibility="visible"/><path id="path6621" fill="url(#linearGradient6691)" fill-opacity="1" fill-rule="evenodd" stroke="none" stroke-linecap="butt" stroke-linejoin="miter" stroke-opacity="1" stroke-width="1" d="M 77.18285,27.022198 C 104.42445,28.74975 85.38165,10.148264 111.05785,13.397198 L 114.59707,23.637237 C 104.7406,16.157926 97.41953,42.17023 77.05785,28.647198 L 77.18285,27.022198 z" display="inline" opacity=".602"/><path id="path6627" fill="url(#radialGradient6697)" fill-opacity="1" stroke="none" stroke-dasharray="none" stroke-dashoffset="0" stroke-linecap="round" stroke-linejoin="round" stroke-miterlimit="4" stroke-opacity="1" stroke-width="5" d="M 46.9375,16.5625 A 14.4375,14.4375 0 1 1 18.0625,16.5625 A 14.4375,14.4375 0 1 1 46.9375,16.5625 z" transform="matrix(0.6659299,0,0,0.6659299,89.66513,3.180235)"/><path stroke-width="1" style="marker:none" id="path7744" fill="url(#radialGradient7746)" fill-opacity="1" fill-rule="evenodd" stroke="none" stroke-dasharray="none" stroke-dashoffset=".677" stroke-linecap="round" stroke-linejoin="miter" stroke-miterlimit="4" stroke-opacity="1" marker-end="none" marker-mid="none" marker-start="none" d="M 124,42 A 14,2 0 1 1 96,42 A 14,2 0 1 1 124,42 z" display="inline" enable-background="accumulate" opacity=".06" overflow="visible" transform="matrix(0.9196428,0,0,1,15.964297,1)" visibility="visible"/><path id="path6629" fill="none" fill-opacity="1" fill-rule="evenodd" stroke="url(#linearGradient6699)" stroke-dasharray="none" stroke-linecap="round" stroke-linejoin="miter" stroke-miterlimit="4" stroke-opacity="1" stroke-width="4" d="M 111.30785,13.272198 L 124.30785,42.2722" display="inline"/><path id="path6631" fill="#fff" fill-opacity="1" fill-rule="evenodd" stroke="url(#linearGradient6701)" stroke-dasharray="none" stroke-linecap="round" stroke-linejoin="miter" stroke-miterlimit="4" stroke-opacity="1" stroke-width="2" d="M 111.30785,13.272198 L 124.30785,42.2722" display="inline"/><path id="path6651" fill="url(#linearGradient6709)" fill-opacity="1" fill-rule="evenodd" stroke="none" stroke-dasharray="none" stroke-linecap="round" stroke-linejoin="miter" stroke-miterlimit="4" stroke-opacity="1" stroke-width="2" d="M 32.9375,11.9375 C 32.879389,11.943775 32.841679,11.954412 32.78125,11.96875 C 32.480508,12.044301 32.224153,12.283065 32.09375,12.5625 C 31.963347,12.841935 31.958934,13.12817 32.09375,13.40625 L 35.84375,21.75 C 35.837094,21.759353 35.837094,21.771897 35.84375,21.78125 C 35.853103,21.787906 35.865647,21.787906 35.875,21.78125 C 35.884353,21.787906 35.896897,21.787906 35.90625,21.78125 C 35.912906,21.771897 35.912906,21.759353 35.90625,21.75 C 36.140708,21.344226 36.483208,21.082875 36.9375,20.96875 C 37.186308,20.909716 37.448221,20.917711 37.6875,20.96875 C 37.696853,20.975406 37.709397,20.975406 37.71875,20.96875 C 37.725406,20.959397 37.725406,20.946853 37.71875,20.9375 L 33.96875,12.59375 C 33.824845,12.242701 33.483751,11.983006 33.125,11.9375 C 33.064511,11.929827 32.995611,11.931225 32.9375,11.9375 z" display="inline" transform="translate(78.27752,0.272198)"/><g id="g7359" transform="matrix(1.0824453,0.2078575,-0.2078575,1.0824453,189.88169,23.669168)"><path id="path7352" fill="#c2d6eb" fill-opacity="1" stroke="none" stroke-dasharray="none" stroke-dashoffset="0" stroke-linecap="round" stroke-linejoin="round" stroke-miterlimit="4" stroke-opacity="1" stroke-width="4" d="M 8.875,14.6875 C 7.8684979,14.699467 7.046069,15.494482 7,16.5 L 6.875,19.09375 L 4.5,20.34375 C 3.8321089,20.690313 3.4317362,21.398443 3.4790941,22.149404 C 3.526452,22.900365 4.0126126,23.552587 4.71875,23.8125 L 7.125,24.71875 L 7.5625,27.375 C 7.679281,28.123353 8.2294677,28.730815 8.9626379,28.920897 C 9.6958082,29.110978 10.471834,28.847348 10.9375,28.25 L 12.53125,26.21875 L 15.21875,26.625 C 15.965906,26.744438 16.712696,26.40907 17.119797,25.77128 C 17.526897,25.133489 17.516665,24.314916 17.09375,23.6875 L 15.65625,21.53125 L 16.84375,19.125 C 17.168073,18.453244 17.069206,17.653844 16.590999,17.081342 C 16.112791,16.50884 15.343768,16.269218 14.625,16.46875 L 12.1875,17.15625 L 10.25,15.25 C 9.8870302,14.883618 9.3906888,14.680569 8.875,14.6875 z" display="inline" transform="matrix(0.5791026,0.1286037,-0.1286037,0.5791026,-75.48356,14.871697)"/><path id="path7357" fill="#fff" fill-opacity="1" stroke="none" stroke-dasharray="none" stroke-dashoffset="0" stroke-linecap="round" stroke-linejoin="round" stroke-miterlimit="4" stroke-opacity="1" stroke-width="4" d="M 15.5,24.75 L 11.728554,24.195391 L 9.4510341,27.075687 L 8.8130572,23.317446 L 5.3699407,22.041456 L 8.7470953,20.273343 L 8.8966522,16.604442 L 11.621825,19.26993 L 15.157373,18.278415 L 13.464468,21.693889 L 15.5,24.75 z" display="inline" transform="matrix(0.5791026,0.1286037,-0.1286037,0.5791026,-75.48356,14.871697)"/></g><g id="g7363" transform="matrix(1.3505669,0,0,1.3505669,184.03944,-26.059566)"><path id="path7365" fill="#c2d6eb" fill-opacity="1" stroke="none" stroke-dasharray="none" stroke-dashoffset="0" stroke-linecap="round" stroke-linejoin="round" stroke-miterlimit="4" stroke-opacity="1" stroke-width="4" d="M 8.875,14.6875 C 7.8684979,14.699467 7.046069,15.494482 7,16.5 L 6.875,19.09375 L 4.5,20.34375 C 3.8321089,20.690313 3.4317362,21.398443 3.4790941,22.149404 C 3.526452,22.900365 4.0126126,23.552587 4.71875,23.8125 L 7.125,24.71875 L 7.5625,27.375 C 7.679281,28.123353 8.2294677,28.730815 8.9626379,28.920897 C 9.6958082,29.110978 10.471834,28.847348 10.9375,28.25 L 12.53125,26.21875 L 15.21875,26.625 C 15.965906,26.744438 16.712696,26.40907 17.119797,25.77128 C 17.526897,25.133489 17.516665,24.314916 17.09375,23.6875 L 15.65625,21.53125 L 16.84375,19.125 C 17.168073,18.453244 17.069206,17.653844 16.590999,17.081342 C 16.112791,16.50884 15.343768,16.269218 14.625,16.46875 L 12.1875,17.15625 L 10.25,15.25 C 9.8870302,14.883618 9.3906888,14.680569 8.875,14.6875 z" display="inline" transform="matrix(0.5791026,0.1286037,-0.1286037,0.5791026,-75.48356,14.871697)"/><path id="path7367" fill="#fff" fill-opacity="1" stroke="none" stroke-dasharray="none" stroke-dashoffset="0" stroke-linecap="round" stroke-linejoin="round" stroke-miterlimit="4" stroke-opacity="1" stroke-width="4" d="M 15.5,24.75 L 11.728554,24.195391 L 9.4510341,27.075687 L 8.8130572,23.317446 L 5.3699407,22.041456 L 8.7470953,20.273343 L 8.8966522,16.604442 L 11.621825,19.26993 L 15.157373,18.278415 L 13.464468,21.693889 L 15.5,24.75 z" display="inline" transform="matrix(0.5791026,0.1286037,-0.1286037,0.5791026,-75.48356,14.871697)"/></g><g id="g7369" transform="matrix(0.7830569,0.2791641,-0.2791641,0.7830569,164.61066,1.8637414)"><path id="path7371" fill="#c2d6eb" fill-opacity="1" stroke="none" stroke-dasharray="none" stroke-dashoffset="0" stroke-linecap="round" stroke-linejoin="round" stroke-miterlimit="4" stroke-opacity="1" stroke-width="4" d="M 8.875,14.6875 C 7.8684979,14.699467 7.046069,15.494482 7,16.5 L 6.875,19.09375 L 4.5,20.34375 C 3.8321089,20.690313 3.4317362,21.398443 3.4790941,22.149404 C 3.526452,22.900365 4.0126126,23.552587 4.71875,23.8125 L 7.125,24.71875 L 7.5625,27.375 C 7.679281,28.123353 8.2294677,28.730815 8.9626379,28.920897 C 9.6958082,29.110978 10.471834,28.847348 10.9375,28.25 L 12.53125,26.21875 L 15.21875,26.625 C 15.965906,26.744438 16.712696,26.40907 17.119797,25.77128 C 17.526897,25.133489 17.516665,24.314916 17.09375,23.6875 L 15.65625,21.53125 L 16.84375,19.125 C 17.168073,18.453244 17.069206,17.653844 16.590999,17.081342 C 16.112791,16.50884 15.343768,16.269218 14.625,16.46875 L 12.1875,17.15625 L 10.25,15.25 C 9.8870302,14.883618 9.3906888,14.680569 8.875,14.6875 z" display="inline" transform="matrix(0.5791026,0.1286037,-0.1286037,0.5791026,-75.48356,14.871697)"/><path id="path7373" fill="#fff" fill-opacity="1" stroke="none" stroke-dasharray="none" stroke-dashoffset="0" stroke-linecap="round" stroke-linejoin="round" stroke-miterlimit="4" stroke-opacity="1" stroke-width="4" d="M 15.5,24.75 L 11.728554,24.195391 L 9.4510341,27.075687 L 8.8130572,23.317446 L 5.3699407,22.041456 L 8.7470953,20.273343 L 8.8966522,16.604442 L 11.621825,19.26993 L 15.157373,18.278415 L 13.464468,21.693889 L 15.5,24.75 z" display="inline" transform="matrix(0.5791026,0.1286037,-0.1286037,0.5791026,-75.48356,14.871697)"/></g><g id="g7382" transform="matrix(0.8037895,0.3840022,-0.3840022,0.8037895,192.59108,36.103889)"><path id="path7384" fill="#c2d6eb" fill-opacity="1" stroke="none" stroke-dasharray="none" stroke-dashoffset="0" stroke-linecap="round" stroke-linejoin="round" stroke-miterlimit="4" stroke-opacity="1" stroke-width="4" d="M 8.875,14.6875 C 7.8684979,14.699467 7.046069,15.494482 7,16.5 L 6.875,19.09375 L 4.5,20.34375 C 3.8321089,20.690313 3.4317362,21.398443 3.4790941,22.149404 C 3.526452,22.900365 4.0126126,23.552587 4.71875,23.8125 L 7.125,24.71875 L 7.5625,27.375 C 7.679281,28.123353 8.2294677,28.730815 8.9626379,28.920897 C 9.6958082,29.110978 10.471834,28.847348 10.9375,28.25 L 12.53125,26.21875 L 15.21875,26.625 C 15.965906,26.744438 16.712696,26.40907 17.119797,25.77128 C 17.526897,25.133489 17.516665,24.314916 17.09375,23.6875 L 15.65625,21.53125 L 16.84375,19.125 C 17.168073,18.453244 17.069206,17.653844 16.590999,17.081342 C 16.112791,16.50884 15.343768,16.269218 14.625,16.46875 L 12.1875,17.15625 L 10.25,15.25 C 9.8870302,14.883618 9.3906888,14.680569 8.875,14.6875 z" display="inline" transform="matrix(0.5791026,0.1286037,-0.1286037,0.5791026,-75.48356,14.871697)"/><path id="path7386" fill="#fff" fill-opacity="1" stroke="none" stroke-dasharray="none" stroke-dashoffset="0" stroke-linecap="round" stroke-linejoin="round" stroke-miterlimit="4" stroke-opacity="1" stroke-width="4" d="M 15.5,24.75 L 11.728554,24.195391 L 9.4510341,27.075687 L 8.8130572,23.317446 L 5.3699407,22.041456 L 8.7470953,20.273343 L 8.8966522,16.604442 L 11.621825,19.26993 L 15.157373,18.278415 L 13.464468,21.693889 L 15.5,24.75 z" display="inline" transform="matrix(0.5791026,0.1286037,-0.1286037,0.5791026,-75.48356,14.871697)"/></g><g id="g7394" transform="matrix(1.1696252,0.6752834,-0.6752834,1.1696252,192.76555,54.121763)"><path id="path7396" fill="#c2d6eb" fill-opacity="1" stroke="none" stroke-dasharray="none" stroke-dashoffset="0" stroke-linecap="round" stroke-linejoin="round" stroke-miterlimit="4" stroke-opacity="1" stroke-width="4" d="M 8.875,14.6875 C 7.8684979,14.699467 7.046069,15.494482 7,16.5 L 6.875,19.09375 L 4.5,20.34375 C 3.8321089,20.690313 3.4317362,21.398443 3.4790941,22.149404 C 3.526452,22.900365 4.0126126,23.552587 4.71875,23.8125 L 7.125,24.71875 L 7.5625,27.375 C 7.679281,28.123353 8.2294677,28.730815 8.9626379,28.920897 C 9.6958082,29.110978 10.471834,28.847348 10.9375,28.25 L 12.53125,26.21875 L 15.21875,26.625 C 15.965906,26.744438 16.712696,26.40907 17.119797,25.77128 C 17.526897,25.133489 17.516665,24.314916 17.09375,23.6875 L 15.65625,21.53125 L 16.84375,19.125 C 17.168073,18.453244 17.069206,17.653844 16.590999,17.081342 C 16.112791,16.50884 15.343768,16.269218 14.625,16.46875 L 12.1875,17.15625 L 10.25,15.25 C 9.8870302,14.883618 9.3906888,14.680569 8.875,14.6875 z" display="inline" transform="matrix(0.5791026,0.1286037,-0.1286037,0.5791026,-75.48356,14.871697)"/><path id="path7398" fill="#fff" fill-opacity="1" stroke="none" stroke-dasharray="none" stroke-dashoffset="0" stroke-linecap="round" stroke-linejoin="round" stroke-miterlimit="4" stroke-opacity="1" stroke-width="4" d="M 15.5,24.75 L 11.728554,24.195391 L 9.4510341,27.075687 L 8.8130572,23.317446 L 5.3699407,22.041456 L 8.7470953,20.273343 L 8.8966522,16.604442 L 11.621825,19.26993 L 15.157373,18.278415 L 13.464468,21.693889 L 15.5,24.75 z" display="inline" transform="matrix(0.5791026,0.1286037,-0.1286037,0.5791026,-75.48356,14.871697)"/></g><g id="g7400" transform="matrix(0.8037895,0.3840022,-0.3840022,0.8037895,193.09108,8.353889)"><path id="path7402" fill="#c2d6eb" fill-opacity="1" stroke="none" stroke-dasharray="none" stroke-dashoffset="0" stroke-linecap="round" stroke-linejoin="round" stroke-miterlimit="4" stroke-opacity="1" stroke-width="4" d="M 8.875,14.6875 C 7.8684979,14.699467 7.046069,15.494482 7,16.5 L 6.875,19.09375 L 4.5,20.34375 C 3.8321089,20.690313 3.4317362,21.398443 3.4790941,22.149404 C 3.526452,22.900365 4.0126126,23.552587 4.71875,23.8125 L 7.125,24.71875 L 7.5625,27.375 C 7.679281,28.123353 8.2294677,28.730815 8.9626379,28.920897 C 9.6958082,29.110978 10.471834,28.847348 10.9375,28.25 L 12.53125,26.21875 L 15.21875,26.625 C 15.965906,26.744438 16.712696,26.40907 17.119797,25.77128 C 17.526897,25.133489 17.516665,24.314916 17.09375,23.6875 L 15.65625,21.53125 L 16.84375,19.125 C 17.168073,18.453244 17.069206,17.653844 16.590999,17.081342 C 16.112791,16.50884 15.343768,16.269218 14.625,16.46875 L 12.1875,17.15625 L 10.25,15.25 C 9.8870302,14.883618 9.3906888,14.680569 8.875,14.6875 z" display="inline" transform="matrix(0.5791026,0.1286037,-0.1286037,0.5791026,-75.48356,14.871697)"/><path id="path7404" fill="#fff" fill-opacity="1" stroke="none" stroke-dasharray="none" stroke-dashoffset="0" stroke-linecap="round" stroke-linejoin="round" stroke-miterlimit="4" stroke-opacity="1" stroke-width="4" d="M 15.5,24.75 L 11.728554,24.195391 L 9.4510341,27.075687 L 8.8130572,23.317446 L 5.3699407,22.041456 L 8.7470953,20.273343 L 8.8966522,16.604442 L 11.621825,19.26993 L 15.157373,18.278415 L 13.464468,21.693889 L 15.5,24.75 z" display="inline" transform="matrix(0.5791026,0.1286037,-0.1286037,0.5791026,-75.48356,14.871697)"/></g><path id="path7406" fill="none" fill-rule="evenodd" stroke="url(#radialGradient7491)" stroke-linecap="butt" stroke-linejoin="miter" stroke-opacity="1" stroke-width="1" d="M 88.3085,40.045049 L 112.17336,16.356972"/><g id="g7534" transform="translate(80,0)"><g id="g6725" fill="#fce94f" transform="translate(-4,4)"><path id="path6729" fill="#fce94f" fill-opacity="1" stroke="none" stroke-dasharray="none" stroke-dashoffset="0" stroke-linecap="round" stroke-linejoin="round" stroke-miterlimit="4" stroke-opacity="1" stroke-width="4" d="M 8.875,14.84375 C 7.9422877,14.854407 7.1840177,15.59889 7.15625,16.53125 L 7.03125,19.21875 L 4.5625,20.5 C 3.9644652,20.825162 3.6110686,21.469296 3.6581341,22.148384 C 3.7051996,22.827472 4.1440766,23.416697 4.78125,23.65625 L 7.25,24.59375 L 7.71875,27.34375 C 7.8208971,28.032556 8.3240002,28.59406 8.9974997,28.770939 C 9.6709992,28.947817 10.385081,28.705978 10.8125,28.15625 L 12.46875,26.0625 L 15.25,26.46875 C 15.928348,26.563328 16.599051,26.251017 16.963264,25.670974 C 17.327477,25.090931 17.317391,24.351148 16.9375,23.78125 L 15.46875,21.5625 L 16.71875,19.0625 C 17.038119,18.444591 16.958664,17.695828 16.516727,17.158705 C 16.074791,16.621583 15.355356,16.399386 14.6875,16.59375 L 12.125,17.3125 L 10.125,15.34375 C 9.7923397,15.016053 9.34189,14.835873 8.875,14.84375 L 8.875,14.84375 z" display="inline" transform="matrix(0.5791026,0.1286037,-0.1286037,0.5791026,5.516439,11.871697)"/></g><g id="g6645" transform="translate(-4,4)"><path id="path6649" fill="#fff" fill-opacity="1" stroke="none" stroke-dasharray="none" stroke-dashoffset="0" stroke-linecap="round" stroke-linejoin="round" stroke-miterlimit="4" stroke-opacity="1" stroke-width="4" d="M 15.5,24.75 L 11.728554,24.195391 L 9.4510341,27.075687 L 8.8130572,23.317446 L 5.3699407,22.041456 L 8.7470953,20.273343 L 8.8966522,16.604442 L 11.621825,19.26993 L 15.157373,18.278415 L 13.464468,21.693889 L 15.5,24.75 z" display="inline" transform="matrix(0.5791026,0.1286037,-0.1286037,0.5791026,5.516439,11.871697)"/></g></g><path id="path7408" fill="none" fill-rule="evenodd" stroke="url(#radialGradient7493)" stroke-linecap="butt" stroke-linejoin="miter" stroke-opacity="1" stroke-width="1" d="M 87.24784,12.644661 L 112.52691,16.356972"/><path id="path7412" fill="none" fill-rule="evenodd" stroke="url(#radialGradient7483)" stroke-linecap="butt" stroke-linejoin="miter" stroke-opacity="1" stroke-width="1" d="M 100.32932,3.9826028 L 112.88047,16.533748"/><path id="path7414" fill="none" fill-rule="evenodd" stroke="url(#radialGradient7485)" stroke-linecap="butt" stroke-linejoin="miter" stroke-opacity="1" stroke-width="1" d="M 123.84062,3.8058261 L 112.52691,15.649865"/><path id="path7416" fill="none" fill-rule="evenodd" stroke="url(#radialGradient7487)" stroke-linecap="butt" stroke-linejoin="miter" stroke-opacity="1" stroke-width="1" d="M 124.37095,31.913321 L 112.70369,16.003418"/><g id="g7495" transform="translate(80,0)"><path id="path6765" fill="#fce94f" fill-opacity="1" stroke="none" stroke-dasharray="none" stroke-dashoffset="0" stroke-linecap="round" stroke-linejoin="round" stroke-miterlimit="4" stroke-opacity="1" stroke-width="4" d="M 8.71875,15.15625 C 8.0246757,15.252521 7.498633,15.831168 7.46875,16.53125 L 7.34375,19.375 L 4.71875,20.75 C 4.2227356,21.018145 3.927043,21.549423 3.9605465,22.112281 C 3.99405,22.67514 4.3506787,23.167589 4.875,23.375 L 7.5,24.34375 L 8,27.3125 C 8.0979814,27.874636 8.5164154,28.327115 9.0691876,28.468678 C 9.6219598,28.610242 10.206378,28.414591 10.5625,27.96875 L 12.3125,25.75 L 15.28125,26.1875 C 15.855033,26.283967 16.430937,26.028266 16.744191,25.537955 C 17.057445,25.047645 17.04743,24.417606 16.71875,23.9375 L 15.15625,21.59375 L 16.46875,18.9375 C 16.744468,18.41723 16.678343,17.781907 16.301393,17.329568 C 15.924444,16.877229 15.311461,16.697621 14.75,16.875 L 12.03125,17.65625 L 9.9375,15.5625 C 9.6166251,15.244771 9.1660874,15.094592 8.71875,15.15625 z" display="inline" transform="matrix(0.5398906,0.495078,-0.495078,0.5398906,45.651768,5.463435)"/><g id="g6653" transform="matrix(1.2348382,0,0,1.2348382,57.67711,11.977747)"><path id="path6657" fill="#fff" fill-opacity="1" stroke="none" stroke-dasharray="none" stroke-dashoffset="0" stroke-linecap="round" stroke-linejoin="round" stroke-miterlimit="4" stroke-opacity="1" stroke-width="4" d="M 15.5,24.75 L 11.728554,24.195391 L 9.4510341,27.075687 L 8.8130572,23.317446 L 5.3699407,22.041456 L 8.7470953,20.273343 L 8.8966522,16.604442 L 11.621825,19.26993 L 15.157373,18.278415 L 13.464468,21.693889 L 15.5,24.75 z" display="inline" transform="matrix(0.4372157,0.4009254,-0.4009254,0.4372157,-9.738395,-5.2754374)"/></g></g><g id="g7500" transform="translate(80,0)"><path id="path6761" fill="#fce94f" fill-opacity="1" stroke="none" stroke-dasharray="none" stroke-dashoffset="0" stroke-linecap="round" stroke-linejoin="round" stroke-miterlimit="4" stroke-opacity="1" stroke-width="4" d="M 8.65625,14.5 C 7.6356013,14.626724 6.8559636,15.472433 6.8125,16.5 L 6.71875,18.96875 L 4.40625,20.15625 C 3.6647452,20.536101 3.2170455,21.317543 3.2643832,22.149334 C 3.3117209,22.981124 3.8451874,23.706728 4.625,24 L 6.9375,24.875 L 7.375,27.40625 C 7.5120443,28.224823 8.1172907,28.886458 8.9204518,29.095685 C 9.7236129,29.304912 10.574743,29.022669 11.09375,28.375 L 12.625,26.46875 L 15.1875,26.84375 C 16.011133,26.966942 16.829962,26.592974 17.276194,25.88982 C 17.722426,25.186667 17.712157,24.286541 17.25,23.59375 L 15.875,21.53125 L 17.03125,19.21875 C 17.400627,18.476329 17.299715,17.586223 16.773511,16.945334 C 16.247308,16.304445 15.393871,16.032203 14.59375,16.25 L 12.21875,16.90625 L 10.375,15.09375 C 9.9215268,14.645819 9.289513,14.427487 8.65625,14.5 z" display="inline" transform="matrix(0.468831,-0.1476355,0.1476355,0.468831,34.662356,5.868036)"/><g id="g6677" transform="matrix(0.4142938,-0.717578,0.717578,0.4142938,42.48245,1.065559)"><path id="path6681" fill="#fff" fill-opacity="1" stroke="none" stroke-dasharray="none" stroke-dashoffset="0" stroke-linecap="round" stroke-linejoin="round" stroke-miterlimit="4" stroke-opacity="1" stroke-width="4" d="M 15.5,24.75 L 11.728554,24.195391 L 9.4510341,27.075687 L 8.8130572,23.317446 L 5.3699407,22.041456 L 8.7470953,20.273343 L 8.8966522,16.604442 L 11.621825,19.26993 L 15.157373,18.278415 L 13.464468,21.693889 L 15.5,24.75 z" display="inline" transform="matrix(0.4372157,0.4009254,-0.4009254,0.4372157,-9.738395,-5.2754374)"/></g></g><g id="g7505" transform="translate(80,0)"><path id="path6757" fill="#fce94f" fill-opacity="1" stroke="none" stroke-dasharray="none" stroke-dashoffset="0" stroke-linecap="round" stroke-linejoin="round" stroke-miterlimit="4" stroke-opacity="1" stroke-width="4" d="M 8.65625,14.625 C 7.7022389,14.746246 6.9754873,15.539066 6.9375,16.5 L 6.84375,19.0625 L 4.46875,20.28125 C 3.7766556,20.639163 3.360807,21.371617 3.4081467,22.149341 C 3.4554865,22.927065 3.9571041,23.603674 4.6875,23.875 L 7.0625,24.75 L 7.5,27.375 C 7.6309698,28.136232 8.1950462,28.750518 8.9423784,28.945767 C 9.6897107,29.141016 10.482171,28.881141 10.96875,28.28125 L 12.5625,26.28125 L 15.21875,26.6875 C 15.98248,26.789501 16.735507,26.43653 17.145689,25.784273 C 17.555871,25.132017 17.547786,24.300408 17.125,23.65625 L 15.71875,21.53125 L 16.90625,19.15625 C 17.255221,18.461233 17.162277,17.625909 16.669068,17.024599 C 16.175859,16.423289 15.374855,16.168732 14.625,16.375 L 12.1875,17.0625 L 10.28125,15.1875 C 9.8544507,14.760811 9.2555051,14.553483 8.65625,14.625 z" display="inline" transform="matrix(0.5791026,0.1286037,-0.1286037,0.5791026,34.194564,-5.300461)"/><g id="g6683" transform="matrix(0.8660254,-0.5,0.5,0.8660254,45.26598,-5.600996)"><path id="path6687" fill="#fff" fill-opacity="1" stroke="none" stroke-dasharray="none" stroke-dashoffset="0" stroke-linecap="round" stroke-linejoin="round" stroke-miterlimit="4" stroke-opacity="1" stroke-width="4" d="M 15.5,24.75 L 11.728554,24.195391 L 9.4510341,27.075687 L 8.8130572,23.317446 L 5.3699407,22.041456 L 8.7470953,20.273343 L 8.8966522,16.604442 L 11.621825,19.26993 L 15.157373,18.278415 L 13.464468,21.693889 L 15.5,24.75 z" display="inline" transform="matrix(0.4372157,0.4009254,-0.4009254,0.4372157,-9.738395,-5.2754374)"/></g></g><g id="g7510" transform="translate(80,0)"><path id="path6753" fill="#fce94f" fill-opacity="1" stroke="none" stroke-dasharray="none" stroke-dashoffset="0" stroke-linecap="round" stroke-linejoin="round" stroke-miterlimit="4" stroke-opacity="1" stroke-width="4" d="M 8.6875,14.75 C 7.7906647,14.857263 7.1031279,15.597687 7.0625,16.5 L 6.9375,19.15625 L 4.53125,20.40625 C 3.8973875,20.744831 3.5176053,21.42047 3.5578387,22.137966 C 3.5980721,22.855461 4.0510086,23.484406 4.71875,23.75 L 7.1875,24.65625 L 7.625,27.375 C 7.7507179,28.086377 8.2798136,28.659065 8.9790345,28.840594 C 9.6782555,29.022122 10.419113,28.779134 10.875,28.21875 L 12.5,26.15625 L 15.21875,26.5625 C 15.939564,26.670013 16.656168,26.343402 17.047873,25.72883 C 17.439578,25.114258 17.433066,24.326759 17.03125,23.71875 L 15.59375,21.5625 L 16.8125,19.09375 C 17.135108,18.439896 17.042661,17.657416 16.576561,17.096745 C 16.110461,16.536074 15.358032,16.302253 14.65625,16.5 L 12.15625,17.21875 L 10.21875,15.28125 C 9.8175134,14.877595 9.2525191,14.681576 8.6875,14.75 z" display="inline" transform="matrix(0.3221827,0.5061294,-0.5061294,0.3221827,37.016097,-6.214715)"/><g id="g6659" transform="matrix(0.9769386,0.2617699,-0.2617699,0.9769386,45.14896,1.488282)"><path id="path6663" fill="#fff" fill-opacity="1" stroke="none" stroke-dasharray="none" stroke-dashoffset="0" stroke-linecap="round" stroke-linejoin="round" stroke-miterlimit="4" stroke-opacity="1" stroke-width="4" d="M 15.5,24.75 L 11.728554,24.195391 L 9.4510341,27.075687 L 8.8130572,23.317446 L 5.3699407,22.041456 L 8.7470953,20.273343 L 8.8966522,16.604442 L 11.621825,19.26993 L 15.157373,18.278415 L 13.464468,21.693889 L 15.5,24.75 z" display="inline" transform="matrix(0.4372157,0.4009254,-0.4009254,0.4372157,-9.738395,-5.2754374)"/></g></g><g id="g7515" transform="translate(80,0)"><path id="path6749" fill="#fce94f" fill-opacity="1" stroke="none" stroke-dasharray="none" stroke-dashoffset="0" stroke-linecap="round" stroke-linejoin="round" stroke-miterlimit="4" stroke-opacity="1" stroke-width="4" d="M 8.84375,13.8125 C 7.379554,13.844155 6.1906927,15.005686 6.125,16.46875 L 6.03125,18.5625 L 4.09375,19.5625 C 3.1258523,20.072601 2.5468644,21.102711 2.6142724,22.194721 C 2.6816805,23.286731 3.382964,24.237811 4.40625,24.625 L 6.3125,25.34375 L 6.6875,27.53125 C 6.8699306,28.619579 7.6784517,29.497163 8.7482149,29.767989 C 9.817978,30.038815 10.946684,29.651668 11.625,28.78125 L 12.90625,27.1875 L 15.09375,27.5 C 16.176551,27.654968 17.249662,27.160958 17.836042,26.237578 C 18.422422,25.314198 18.41321,24.132873 17.8125,23.21875 L 16.6875,21.5 L 17.65625,19.53125 C 18.160745,18.543558 18.030311,17.350557 17.324311,16.495211 C 16.618312,15.639866 15.47167,15.28564 14.40625,15.59375 L 12.4375,16.15625 L 10.875,14.625 C 10.337308,14.088103 9.6033868,13.794535 8.84375,13.8125 z" display="inline" transform="matrix(0.3509813,7.7943874e-2,-7.7943874e-2,0.3509813,20.716829,2.055163)"/><g id="g6665" transform="matrix(0.5248789,-0.303039,0.303039,0.5248789,27.42697,1.873015)"><path id="path6669" fill="#fff" fill-opacity="1" stroke="none" stroke-dasharray="none" stroke-dashoffset="0" stroke-linecap="round" stroke-linejoin="round" stroke-miterlimit="4" stroke-opacity="1" stroke-width="4" d="M 15.5,24.75 L 11.728554,24.195391 L 9.4510341,27.075687 L 8.8130572,23.317446 L 5.3699407,22.041456 L 8.7470953,20.273343 L 8.8966522,16.604442 L 11.621825,19.26993 L 15.157373,18.278415 L 13.464468,21.693889 L 15.5,24.75 z" display="inline" transform="matrix(0.4372157,0.4009254,-0.4009254,0.4372157,-9.738395,-5.2754374)"/></g></g><path id="path7418" fill="none" fill-opacity="1" fill-rule="evenodd" stroke="url(#radialGradient7489)" stroke-linecap="butt" stroke-linejoin="miter" stroke-opacity="1" stroke-width="1" d="M 106.16295,39.868272 L 112.17336,16.887302"/><g id="g7520" transform="translate(80,0)"><path id="path6741" fill="#fce94f" fill-opacity="1" stroke="none" stroke-dasharray="none" stroke-dashoffset="0" stroke-linecap="round" stroke-linejoin="round" stroke-miterlimit="4" stroke-opacity="1" stroke-width="4" d="M 8.75,15.3125 C 8.127075,15.388303 7.650806,15.904261 7.625,16.53125 L 7.5,19.5 L 4.78125,20.90625 C 4.3476086,21.147287 4.092175,21.617078 4.125621,22.112078 C 4.1590669,22.607078 4.4753756,23.038238 4.9375,23.21875 L 7.6875,24.25 L 8.1875,27.28125 C 8.2830337,27.768732 8.6518288,28.15701 9.1337522,28.277491 C 9.6156756,28.397972 10.123802,28.228924 10.4375,27.84375 L 12.25,25.5625 L 15.3125,26.03125 C 15.820335,26.112008 16.327232,25.881221 16.599766,25.445166 C 16.8723,25.009112 16.857625,24.452343 16.5625,24.03125 L 14.9375,21.59375 L 16.3125,18.84375 C 16.526354,18.390883 16.456633,17.854915 16.134036,17.471831 C 15.811439,17.088747 15.295155,16.928834 14.8125,17.0625 L 12,17.84375 L 9.8125,15.6875 C 9.5352877,15.405065 9.1430816,15.266639 8.75,15.3125 L 8.75,15.3125 z" transform="matrix(1.2726133,0,0,1.2726133,8.34394,-7.400444)"/><g id="g6633" transform="translate(-4,1)"><path id="path6637" fill="#fff" fill-opacity="1" stroke="none" stroke-dasharray="none" stroke-dashoffset="0" stroke-linecap="round" stroke-linejoin="round" stroke-miterlimit="4" stroke-opacity="1" stroke-width="4" d="M 15.5,24.75 L 11.728554,24.195391 L 9.4510341,27.075687 L 8.8130572,23.317446 L 5.3699407,22.041456 L 8.7470953,20.273343 L 8.8966522,16.604442 L 11.621825,19.26993 L 15.157373,18.278415 L 13.464468,21.693889 L 15.5,24.75 z" transform="matrix(1.2726133,0,0,1.2726133,12.34394,-8.400444)"/></g></g><g id="g7529" transform="translate(80,0)"><path id="path6737" fill="#fce94f" fill-opacity="1" stroke="none" stroke-dasharray="none" stroke-dashoffset="0" stroke-linecap="round" stroke-linejoin="round" stroke-miterlimit="4" stroke-opacity="1" stroke-width="4" d="M 8.71875,15.0625 C 7.9705926,15.155019 7.4007829,15.777835 7.375,16.53125 L 7.25,19.3125 L 4.65625,20.65625 C 4.1092959,20.934469 3.7809959,21.51209 3.8218152,22.124379 C 3.8626345,22.736668 4.2647045,23.265598 4.84375,23.46875 L 7.46875,24.4375 L 7.9375,27.3125 C 8.0491701,27.895768 8.4877133,28.362042 9.0630482,28.509221 C 9.6383832,28.656399 10.246961,28.457994 10.625,28 L 12.34375,25.84375 L 15.28125,26.28125 C 15.883488,26.373092 16.482949,26.099565 16.808258,25.584492 C 17.133567,25.069419 17.122965,24.410588 16.78125,23.90625 L 15.25,21.59375 L 16.53125,18.96875 C 16.798492,18.427378 16.723038,17.779557 16.338528,17.314097 C 15.954017,16.848636 15.332085,16.652254 14.75,16.8125 L 12.0625,17.5625 L 9.96875,15.5 C 9.6398358,15.172397 9.1801703,15.011514 8.71875,15.0625 L 8.71875,15.0625 z" display="inline" transform="matrix(0.5838837,0.5838837,-0.5838837,0.5838837,20.75314,8.750574)"/><g id="g6639" transform="translate(-4,1)"><path id="path6643" fill="#fff" fill-opacity="1" stroke="none" stroke-dasharray="none" stroke-dashoffset="0" stroke-linecap="round" stroke-linejoin="round" stroke-miterlimit="4" stroke-opacity="1" stroke-width="4" d="M 15.5,24.75 L 11.728554,24.195391 L 9.4510341,27.075687 L 8.8130572,23.317446 L 5.3699407,22.041456 L 8.7470953,20.273343 L 8.8966522,16.604442 L 11.621825,19.26993 L 15.157373,18.278415 L 13.464468,21.693889 L 15.5,24.75 z" display="inline" transform="matrix(0.5838837,0.5838837,-0.5838837,0.5838837,24.75314,7.750574)"/></g></g><g id="g7525" transform="translate(80,0)"><path id="path6745" fill="#fce94f" fill-opacity="1" stroke="none" stroke-dasharray="none" stroke-dashoffset="0" stroke-linecap="round" stroke-linejoin="round" stroke-miterlimit="4" stroke-opacity="1" stroke-width="4" d="M 8.875,14.6875 C 7.8684979,14.699467 7.046069,15.494482 7,16.5 L 6.875,19.09375 L 4.5,20.34375 C 3.8321089,20.690313 3.4317364,21.398443 3.4790942,22.149404 C 3.5264521,22.900364 4.0126127,23.552587 4.71875,23.8125 L 7.125,24.71875 L 7.5625,27.375 C 7.6792811,28.123353 8.2294678,28.730815 8.962638,28.920896 C 9.6958082,29.110978 10.471834,28.847348 10.9375,28.25 L 12.53125,26.21875 L 15.21875,26.625 C 15.965906,26.744438 16.712696,26.40907 17.119796,25.77128 C 17.526897,25.133489 17.516665,24.314916 17.09375,23.6875 L 15.65625,21.53125 L 16.84375,19.125 C 17.168073,18.453244 17.069206,17.653844 16.590999,17.081342 C 16.112791,16.50884 15.343768,16.269218 14.625,16.46875 L 12.1875,17.15625 L 10.25,15.25 C 9.8870302,14.883618 9.3906888,14.680569 8.875,14.6875 L 8.875,14.6875 z" display="inline" transform="matrix(0.526085,0.2741045,-0.2741045,0.526085,30.67156,12.212387)"/><path id="path6675" fill="#fff" fill-opacity="1" stroke="none" stroke-dasharray="none" stroke-dashoffset="0" stroke-linecap="round" stroke-linejoin="round" stroke-miterlimit="4" stroke-opacity="1" stroke-width="4" d="M 15.5,24.75 L 11.728554,24.195391 L 9.4510341,27.075687 L 8.8130572,23.317446 L 5.3699407,22.041456 L 8.7470953,20.273343 L 8.8966522,16.604442 L 11.621825,19.26993 L 15.157373,18.278415 L 13.464468,21.693889 L 15.5,24.75 z" display="inline" transform="matrix(0.526085,0.2741045,-0.2741045,0.526085,30.67156,12.212387)"/></g><path id="path7358" fill="none" fill-rule="evenodd" stroke="url(#radialGradient7382)" stroke-linecap="butt" stroke-linejoin="miter" stroke-opacity="1" stroke-width="1" d="M 95,42 L 113,16"/><path id="path7356" fill="none" fill-rule="evenodd" stroke="url(#radialGradient7374)" stroke-linecap="butt" stroke-linejoin="miter" stroke-opacity="1" stroke-width="1" d="M 83,22 L 113,16"/><path id="path7354" fill="none" fill-rule="evenodd" stroke="url(#radialGradient7440)" stroke-linecap="butt" stroke-linejoin="miter" stroke-opacity="1" stroke-width="1" d="M 84,3.375 L 113,16"/><path id="path7364" fill="none" fill-rule="evenodd" stroke="url(#radialGradient7406)" stroke-linecap="butt" stroke-linejoin="miter" stroke-opacity="1" stroke-width="1" d="M 103,2 L 113,16"/><path id="path7362" fill="none" fill-rule="evenodd" stroke="url(#radialGradient7422)" stroke-linecap="butt" stroke-linejoin="miter" stroke-opacity="1" stroke-width="1" d="M 115,2 L 113,16"/><path id="path7424" fill="none" fill-rule="evenodd" stroke="url(#radialGradient7432)" stroke-linecap="butt" stroke-linejoin="miter" stroke-opacity="1" stroke-width="1" d="M 127,8 L 113,16"/><path id="path7366" fill="none" fill-rule="evenodd" stroke="url(#radialGradient7398)" stroke-linecap="butt" stroke-linejoin="miter" stroke-opacity="1" stroke-width="1" d="M 113,16 L 127,20"/><path id="path7360" fill="none" fill-rule="evenodd" stroke="url(#radialGradient7390)" stroke-linecap="butt" stroke-linejoin="miter" stroke-opacity="1" stroke-width="1" d="M 115,40 L 113,16"/></g></g></svg>